<?xml version="1.0" standalone="no"?>
<!DOCTYPE svg PUBLIC "-//W3C//DTD SVG 20010904//EN"
 "http://www.w3.org/TR/2001/REC-SVG-20010904/DTD/svg10.dtd">
<svg version="1.0" xmlns="http://www.w3.org/2000/svg"
 width="328.000000pt" height="328.000000pt" viewBox="0 0 328.000000 328.000000"
 preserveAspectRatio="xMidYMid meet">
<metadata>
Created by potrace 1.11, written by Peter Selinger 2001-2013
</metadata>
<g transform="translate(0.000000,328.000000) scale(0.100000,-0.100000)"
fill="#000000" stroke="none">
<path d="M992 3173 c-26 -54 -82 -166 -125 -249 -42 -82 -79 -169 -83 -192
-16 -101 29 -199 113 -244 27 -14 86 -38 133 -53 106 -34 127 -45 168 -85 68
-64 89 -157 55 -242 -9 -24 -19 -45 -23 -48 -3 -3 -23 -43 -44 -90 -45 -99
-78 -145 -119 -167 -72 -37 -151 17 -259 177 -39 58 -82 118 -97 133 -33 36
-92 67 -127 67 -39 0 -92 -29 -119 -64 -22 -29 -455 -881 -455 -895 0 -3 62
-39 138 -79 502 -266 547 -291 585 -333 33 -37 37 -47 37 -95 0 -30 -4 -54
-10 -54 -5 0 -10 -7 -10 -15 0 -9 -40 -55 -88 -103 -98 -96 -117 -133 -110
-212 4 -34 14 -61 38 -92 34 -44 89 -97 102 -98 4 0 47 -23 95 -52 118 -69
226 -94 287 -67 14 7 37 29 52 50 23 33 27 54 39 182 12 128 16 149 40 185 58
87 133 84 302 -13 65 -37 159 -91 208 -118 50 -28 144 -82 210 -120 66 -39
144 -83 172 -99 l53 -29 24 53 c26 56 80 186 127 305 15 39 41 100 57 135 16
35 37 86 47 113 30 82 70 133 113 144 36 10 92 3 124 -15 9 -5 63 -53 121
-107 167 -156 200 -177 280 -177 59 0 138 54 153 105 4 11 21 52 40 91 41 89
49 130 35 182 -14 51 -66 120 -109 145 -18 11 -94 36 -170 57 -75 21 -153 44
-172 52 -46 20 -84 62 -106 117 -15 38 -15 48 -4 80 7 20 91 193 186 386 130
265 170 353 161 361 -7 6 -140 86 -297 177 -349 202 -359 210 -384 269 -30 73
-13 113 84 208 112 109 125 175 56 278 -32 48 -171 150 -283 207 -86 44 -168
33 -214 -28 -20 -28 -24 -48 -31 -159 -8 -142 -20 -177 -71 -209 -25 -16 -43
-19 -80 -15 -53 6 -38 -3 -474 268 -166 103 -307 188 -313 188 -6 0 -32 -44
-58 -97z m1051 -709 c159 -37 336 -131 438 -234 109 -110 151 -226 132 -363
-12 -80 -61 -217 -79 -217 -11 0 -361 164 -371 174 -3 3 3 27 15 53 51 122 33
201 -59 246 -64 32 -97 34 -150 7 -69 -36 -128 -153 -114 -229 15 -78 57 -139
213 -306 107 -114 170 -204 202 -290 65 -174 -11 -425 -180 -596 -81 -82 -138
-115 -232 -134 -258 -54 -701 160 -810 391 -41 86 -49 190 -23 280 17 61 84
214 93 214 19 0 372 -176 372 -185 0 -7 -12 -39 -27 -71 -37 -79 -39 -174 -5
-221 25 -36 94 -73 151 -80 86 -12 186 72 211 179 25 102 -11 174 -171 345
-188 200 -245 298 -256 439 -15 191 109 443 268 544 102 66 242 86 382 54z"/>
</g>
</svg>
