<?xml version="1.0" encoding="iso-8859-1"?>
<!-- Generator: Adobe Illustrator 16.0.3, SVG Export Plug-In . SVG Version: 6.00 Build 0)  -->
<!DOCTYPE svg PUBLIC "-//W3C//DTD SVG 1.1 Tiny//EN" "http://www.w3.org/Graphics/SVG/1.1/DTD/svg11-tiny.dtd" [
	<!ENTITY ns_flows "http://ns.adobe.com/Flows/1.0/">
	<!ENTITY ns_extend "http://ns.adobe.com/Extensibility/1.0/">
	<!ENTITY ns_ai "http://ns.adobe.com/AdobeIllustrator/10.0/">
	<!ENTITY ns_graphs "http://ns.adobe.com/Graphs/1.0/">
	<!ENTITY ns_vars "http://ns.adobe.com/Variables/1.0/">
	<!ENTITY ns_imrep "http://ns.adobe.com/ImageReplacement/1.0/">
	<!ENTITY ns_sfw "http://ns.adobe.com/SaveForWeb/1.0/">
	<!ENTITY ns_custom "http://ns.adobe.com/GenericCustomNamespace/1.0/">
	<!ENTITY ns_adobe_xpath "http://ns.adobe.com/XPath/1.0/">
]>
<svg version="1.1" baseProfile="tiny" id="Layer_1" xmlns:x="&ns_extend;" xmlns:i="&ns_ai;" xmlns:graph="&ns_graphs;"
	 xmlns="http://www.w3.org/2000/svg" xmlns:xlink="http://www.w3.org/1999/xlink" xmlns:a="http://ns.adobe.com/AdobeSVGViewerExtensions/3.0/"
	 x="0px" y="0px" width="452.517px" height="87.797px" viewBox="0 0 452.517 87.797" xml:space="preserve">
<metadata>
	<sfw  xmlns="&ns_sfw;">
		<slices></slices>
		<sliceSourceBounds  width="452.517" height="87.797" x="253.667" y="-323.959" bottomLeftOrigin="true"></sliceSourceBounds>
		<optimizationSettings>
			<targetSettings  fileFormat="PNG24Format" targetSettingsID="0">
				<PNG24Format  transparency="true" interlaced="false" noMatteColor="true" matteColor="#FFFFFF" filtered="false">
					</PNG24Format>
			</targetSettings>
		</optimizationSettings>
	</sfw>
</metadata>
<g>
	<path fill="#202020" d="M276.615,64.734c0.293,0.037,0.568,0.057,0.826,0.057c0.387,0,0.58-0.182,0.58-0.54
		c0-0.396-0.305-0.63-0.91-0.702c-1.453-0.221-2.428-0.561-2.923-1.021c-0.497-0.459-0.81-1.297-0.938-2.512l-0.082-1.96
		l0.027-1.159V38.18c0-0.829,0.174-1.244,0.523-1.244c0.146,0,0.275,0.057,0.387,0.166l0.275,0.304l23.248,26.585l0.607,0.717
		c0.146,0.148,0.358,0.23,0.634,0.248c0.423,0.02,0.68-0.197,0.771-0.648c0.093-0.449,0.14-1.713,0.14-3.791v-23.11l0.054-1.82
		v-2.979c0-1.765,0.181-2.97,0.538-3.613c0.358-0.644,1.098-1.103,2.22-1.378c0.388-0.11,0.57-0.285,0.552-0.525
		c-0.037-0.385-0.295-0.578-0.771-0.578c-0.313,0-0.764,0.055-1.352,0.165c-0.681,0.11-1.59,0.167-2.73,0.167
		c-2.133,0-3.832-0.068-5.102-0.201c-0.533-0.05-0.92-0.076-1.158-0.076c-0.534,0-0.801,0.172-0.801,0.513
		c0,0.358,0.267,0.583,0.801,0.674c1.893,0.312,3.203,0.796,3.93,1.447c0.727,0.653,1.181,1.761,1.364,3.324l0.331,6.343
		l-0.027,3.723v13.652c-0.019,0.33-0.119,0.505-0.304,0.523c-0.11,0.018-0.366-0.203-0.771-0.662l-25.372-28.736
		c-0.461-0.534-0.92-0.801-1.379-0.801c-0.239,0-0.578,0.01-1.021,0.027l-0.441,0.029l-1.847-0.057l-1.131-0.027
		c-0.203-0.018-0.351-0.027-0.441-0.027c-0.406,0-0.606,0.17-0.606,0.512c0,0.341,0.247,0.548,0.744,0.619
		c1.911,0.258,3.374,1.303,4.386,3.133c1.01,1.83,1.517,4.337,1.517,7.521v18.767c0,1.988-0.272,3.429-0.814,4.321
		c-0.542,0.892-1.586,1.604-3.13,2.138c-0.534,0.181-0.791,0.404-0.772,0.674c0.036,0.342,0.294,0.512,0.772,0.512
		c0.202,0,0.541-0.033,1.021-0.1c0.644-0.084,1.323-0.125,2.04-0.125l1.323-0.051l2.813,0.139
		C275.612,64.643,276.412,64.698,276.615,64.734z"/>
	<path fill="#202020" d="M384.555,60.928c-1.751,1.49-3.892,2.235-6.422,2.235c-2.493,0-4.804-0.774-6.931-2.323
		s-3.521-3.467-4.181-5.754c-0.261-0.885-0.563-1.336-0.899-1.354c-0.375-0.018-0.563,0.247-0.563,0.8
		c0,0.699,0.239,1.875,0.718,3.53c0.422,1.526,0.651,2.362,0.688,2.509c0.221,1.031,0.387,1.669,0.497,1.918
		c0.11,0.247,0.331,0.481,0.661,0.703c0.791,0.533,2.037,1.001,3.738,1.406c1.699,0.404,3.258,0.606,4.674,0.606
		c3.916,0,7.124-1.093,9.625-3.278c2.5-2.188,3.75-4.998,3.75-8.435c0-5.069-3.396-8.718-10.189-10.941
		c-3.488-1.159-5.68-1.959-6.569-2.401c-0.89-0.441-1.712-1.141-2.464-2.099c-0.864-1.122-1.295-2.457-1.295-4.003
		c0-1.748,0.664-3.207,1.993-4.375c1.329-1.169,2.983-1.754,4.962-1.754c2.492,0,4.752,0.646,6.777,1.938s3.368,2.933,4.028,4.926
		c0.299,0.885,0.599,1.328,0.897,1.328c0.395,0,0.592-0.285,0.592-0.855c0-0.146-0.047-0.524-0.139-1.131l-0.441-2.84
		c-0.238-1.545-0.358-2.473-0.358-2.786c0-0.919-0.229-1.368-0.688-1.351c-0.148,0-0.249,0.037-0.303,0.109l-0.388,0.332
		c-0.221,0.184-0.44,0.275-0.661,0.275c-0.166,0-0.332-0.037-0.497-0.11l-1.903-0.8c-1.361-0.57-3.024-0.855-4.991-0.855
		c-3.493,0-6.347,0.938-8.563,2.812c-2.215,1.874-3.322,4.299-3.322,7.276c0,2.663,0.85,4.831,2.547,6.503
		c1.698,1.671,4.586,3.197,8.662,4.575c3.947,1.324,6.335,2.346,7.162,3.063c1.614,1.399,2.423,3.119,2.423,5.161
		C387.182,57.624,386.306,59.438,384.555,60.928z"/>
	<path fill="#202020" d="M432.623,64.377c2.298,0,5.203,0.165,8.715,0.496c0.9,0.072,1.617,0.11,2.15,0.11
		c2.464,0,4.505-0.989,6.123-2.968c1.342-1.648,2.013-3.07,2.013-4.262c0-0.493-0.17-0.732-0.509-0.713
		c-0.207,0.019-0.414,0.184-0.621,0.496c-2.057,3.254-6.693,4.881-13.907,4.881c-2.276,0-3.694-0.192-4.254-0.58
		c-0.562-0.387-0.841-1.362-0.841-2.928V48.744l-0.026-0.912c0-0.553,0.151-0.92,0.453-1.104s0.903-0.276,1.804-0.276h6.081
		c1.578,0,2.696,0.221,3.356,0.66c0.661,0.442,1.102,1.279,1.322,2.512l0.164,0.771c0.075,0.404,0.311,0.607,0.706,0.607
		c0.356,0,0.536-0.229,0.536-0.688c0-0.165-0.02-0.431-0.055-0.798c-0.111-1.101-0.166-2.209-0.166-3.328
		c0-1.468,0.08-3.09,0.245-4.871c0.02-0.273,0.03-0.476,0.03-0.604c0-0.477-0.18-0.725-0.535-0.744
		c-0.377-0.018-0.611,0.203-0.706,0.662c-0.238,1.214-0.505,1.986-0.8,2.316c-0.294,0.332-0.938,0.6-1.93,0.801
		c-1.122,0.221-2.647,0.331-4.579,0.331h-4.246c-0.791,0-1.265-0.087-1.421-0.263s-0.234-0.688-0.234-1.536V31.154
		c0-0.979,0.165-1.611,0.496-1.896c0.329-0.287,1.064-0.43,2.202-0.43h4.321c2.845,0,4.8,0.139,5.863,0.414
		c1.064,0.275,1.771,0.827,2.12,1.654c0.221,0.533,0.331,1.094,0.331,1.682v0.719c0,0.57,0.178,0.845,0.535,0.826
		c0.316-0.018,0.523-0.16,0.617-0.426s0.188-0.93,0.281-1.992l0.111-1.621c0.092-1.209,0.165-1.941,0.221-2.199
		c0.054-0.256,0.082-0.467,0.082-0.632c0-0.531-0.303-0.796-0.91-0.796c-0.239,0-0.606,0.037-1.104,0.109
		c-0.239,0.037-0.901,0.074-1.986,0.11l-3.916,0.193c-1.729,0.073-3.714,0.11-5.955,0.11c-3.697,0-6.859-0.147-9.487-0.441
		c-0.772-0.092-1.39-0.139-1.849-0.139c-0.828,0-1.24,0.252-1.24,0.757c0,0.343,0.267,0.513,0.799,0.513
		c1.674,0,2.799,0.456,3.379,1.367c0.579,0.912,0.867,2.685,0.867,5.317v23.34l-0.025,1.794c0,2.211-0.663,3.499-1.986,3.867
		l-1.049,0.305c-0.478,0.125-0.717,0.342-0.717,0.646c0,0.396,0.294,0.594,0.883,0.594c0.258,0,0.735-0.064,1.434-0.193
		C427.134,64.486,429.405,64.377,432.623,64.377z"/>
	<path fill="#202020" d="M261.935,27.09c-0.038-0.385-0.295-0.578-0.773-0.578c-0.313,0-0.764,0.055-1.35,0.165
		c-0.682,0.11-1.591,0.167-2.731,0.167c-2.134,0-3.833-0.068-5.103-0.201c-0.533-0.05-0.918-0.076-1.158-0.076
		c-0.533,0-0.799,0.172-0.799,0.513c0,0.358,0.266,0.583,0.799,0.674c1.895,0.312,3.205,0.796,3.931,1.447
		c0.727,0.653,1.181,1.761,1.364,3.324l0.332,6.343l-0.027,3.723v13.652c-0.02,0.33-0.121,0.505-0.305,0.523
		c-0.109,0.018-0.367-0.203-0.771-0.662l-25.372-28.736c-0.46-0.534-0.92-0.801-1.379-0.801c-0.239,0-0.579,0.01-1.02,0.027
		l-0.442,0.029l-1.847-0.057l-1.131-0.027c-0.202-0.018-0.349-0.027-0.44-0.027c-0.405,0-0.607,0.17-0.607,0.512
		c0,0.341,0.249,0.548,0.745,0.619c1.913,0.258,3.375,1.303,4.385,3.133s1.517,4.337,1.517,7.521v18.767
		c0,1.988-0.271,3.429-0.813,4.321c-0.542,0.892-1.585,1.604-3.13,2.138c-0.533,0.181-0.791,0.404-0.772,0.674
		c0.037,0.342,0.294,0.512,0.772,0.512c0.202,0,0.542-0.033,1.021-0.1c0.643-0.084,1.323-0.125,2.04-0.125l1.324-0.051l2.813,0.139
		c1.397,0.072,2.197,0.128,2.399,0.164c0.294,0.037,0.569,0.057,0.827,0.057c0.387,0,0.579-0.182,0.579-0.54
		c0-0.396-0.304-0.63-0.909-0.702c-1.453-0.221-2.428-0.561-2.924-1.021c-0.496-0.459-0.809-1.297-0.938-2.512l-0.083-1.96
		l0.028-1.159V38.18c0-0.829,0.174-1.244,0.523-1.244c0.146,0,0.275,0.057,0.386,0.166l0.276,0.304l23.249,26.585l0.605,0.717
		c0.147,0.148,0.359,0.23,0.635,0.248c0.422,0.02,0.68-0.197,0.771-0.648c0.094-0.449,0.139-1.713,0.139-3.791v-23.11l0.055-1.82
		v-2.979c0-1.765,0.181-2.97,0.539-3.613c0.357-0.644,1.098-1.103,2.219-1.378C261.768,27.505,261.953,27.33,261.935,27.09z"/>
	<path fill="#202020" d="M396.781,59.488c0,2.211-0.662,3.499-1.985,3.867l-1.049,0.305c-0.478,0.125-0.716,0.342-0.716,0.646
		c0,0.396,0.293,0.594,0.883,0.594c0.258,0,0.734-0.064,1.434-0.193c1.324-0.221,3.594-0.33,6.811-0.33
		c2.299,0,5.204,0.165,8.717,0.496c0.898,0.072,1.617,0.11,2.15,0.11c2.463,0,4.504-0.989,6.121-2.968
		c1.342-1.648,2.014-3.07,2.014-4.262c0-0.493-0.169-0.732-0.509-0.713c-0.207,0.019-0.414,0.184-0.621,0.496
		c-2.057,3.254-6.692,4.881-13.907,4.881c-2.276,0-3.695-0.192-4.254-0.58c-0.562-0.387-0.84-1.362-0.84-2.928V48.744L401,47.832
		c0-0.553,0.152-0.92,0.455-1.104s0.903-0.276,1.803-0.276h6.082c1.578,0,2.697,0.221,3.357,0.66c0.66,0.442,1.1,1.279,1.32,2.512
		l0.166,0.771c0.074,0.404,0.309,0.607,0.705,0.607c0.357,0,0.535-0.229,0.535-0.688c0-0.165-0.018-0.431-0.055-0.798
		c-0.11-1.101-0.166-2.209-0.166-3.328c0-1.468,0.082-3.09,0.246-4.871c0.02-0.273,0.03-0.476,0.03-0.604
		c0-0.477-0.179-0.725-0.536-0.744c-0.376-0.018-0.61,0.203-0.705,0.662c-0.239,1.214-0.506,1.986-0.799,2.316
		c-0.295,0.332-0.939,0.6-1.93,0.801c-1.123,0.221-2.648,0.331-4.58,0.331h-4.247c-0.791,0-1.265-0.087-1.419-0.263
		c-0.157-0.176-0.234-0.688-0.234-1.536V31.154c0-0.979,0.164-1.611,0.494-1.896c0.33-0.287,1.064-0.43,2.203-0.43h4.322
		c2.844,0,4.799,0.139,5.863,0.414s1.771,0.827,2.119,1.654c0.221,0.533,0.332,1.094,0.332,1.682v0.719
		c0,0.57,0.176,0.845,0.533,0.826c0.318-0.018,0.523-0.16,0.618-0.426c0.094-0.266,0.188-0.93,0.282-1.992l0.109-1.621
		c0.093-1.209,0.166-1.941,0.221-2.199c0.055-0.256,0.082-0.467,0.082-0.632c0-0.531-0.303-0.796-0.909-0.796
		c-0.239,0-0.607,0.037-1.103,0.109c-0.24,0.037-0.902,0.074-1.986,0.11l-3.916,0.193c-1.729,0.073-3.715,0.11-5.957,0.11
		c-3.695,0-6.857-0.147-9.486-0.441c-0.772-0.092-1.389-0.139-1.849-0.139c-0.827,0-1.241,0.252-1.241,0.757
		c0,0.343,0.266,0.513,0.8,0.513c1.673,0,2.8,0.456,3.378,1.367c0.58,0.912,0.869,2.685,0.869,5.317v23.34L396.781,59.488z"/>
	<path fill="#202020" d="M211.977,26.87c-1.728,0.073-3.714,0.11-5.957,0.11c-3.696,0-6.858-0.147-9.487-0.441
		c-0.771-0.092-1.389-0.139-1.848-0.139c-0.827,0-1.24,0.252-1.24,0.757c0,0.343,0.265,0.513,0.799,0.513
		c1.672,0,2.798,0.456,3.378,1.367c0.579,0.912,0.869,2.685,0.869,5.317v23.34l-0.028,1.794c0,2.211-0.662,3.499-1.986,3.867
		l-1.048,0.305c-0.479,0.125-0.716,0.342-0.716,0.646c0,0.396,0.293,0.594,0.881,0.594c0.258,0,0.735-0.064,1.435-0.193
		c1.323-0.221,3.594-0.33,6.812-0.33c2.298,0,5.203,0.165,8.714,0.496c0.901,0.072,1.618,0.11,2.151,0.11
		c2.463,0,4.504-0.989,6.122-2.968c1.342-1.648,2.014-3.07,2.014-4.262c0-0.493-0.17-0.732-0.509-0.713
		c-0.208,0.019-0.414,0.184-0.622,0.496c-2.056,3.254-6.692,4.881-13.906,4.881c-2.277,0-3.695-0.192-4.255-0.58
		c-0.56-0.387-0.84-1.362-0.84-2.928V48.744l-0.027-0.912c0-0.553,0.151-0.92,0.454-1.104c0.303-0.185,0.904-0.276,1.802-0.276
		h6.083c1.577,0,2.696,0.221,3.356,0.66c0.661,0.442,1.101,1.279,1.322,2.512l0.165,0.771c0.075,0.404,0.31,0.607,0.705,0.607
		c0.357,0,0.537-0.229,0.537-0.688c0-0.165-0.019-0.431-0.055-0.798c-0.11-1.101-0.166-2.209-0.166-3.328
		c0-1.468,0.082-3.09,0.245-4.871c0.021-0.273,0.031-0.476,0.031-0.604c0-0.477-0.179-0.725-0.536-0.744
		c-0.376-0.018-0.612,0.203-0.706,0.662c-0.239,1.214-0.506,1.986-0.799,2.316c-0.294,0.332-0.938,0.6-1.931,0.801
		c-1.122,0.221-2.648,0.331-4.577,0.331h-4.248c-0.791,0-1.265-0.087-1.421-0.263s-0.234-0.688-0.234-1.536V31.154
		c0-0.979,0.166-1.611,0.496-1.896c0.33-0.287,1.064-0.43,2.203-0.43h4.322c2.844,0,4.799,0.139,5.863,0.414
		c1.064,0.275,1.772,0.827,2.12,1.654c0.22,0.533,0.331,1.094,0.331,1.682v0.719c0,0.57,0.178,0.845,0.534,0.826
		c0.319-0.018,0.525-0.16,0.619-0.426s0.187-0.93,0.282-1.992l0.11-1.621c0.091-1.209,0.165-1.941,0.22-2.199
		c0.056-0.256,0.083-0.467,0.083-0.632c0-0.531-0.303-0.796-0.911-0.796c-0.239,0-0.606,0.037-1.103,0.109
		c-0.239,0.037-0.901,0.074-1.985,0.11L211.977,26.87z"/>
	<path fill="#202020" d="M352.207,42.55c-3.488-1.159-5.68-1.959-6.569-2.401c-0.89-0.441-1.713-1.141-2.465-2.099
		c-0.862-1.122-1.294-2.457-1.294-4.003c0-1.748,0.664-3.207,1.992-4.375c1.33-1.169,2.982-1.754,4.963-1.754
		c2.492,0,4.752,0.646,6.777,1.938s3.367,2.933,4.027,4.926c0.301,0.885,0.6,1.328,0.898,1.328c0.395,0,0.592-0.285,0.592-0.855
		c0-0.146-0.047-0.524-0.139-1.131l-0.441-2.84c-0.239-1.545-0.357-2.473-0.357-2.786c0-0.919-0.23-1.368-0.69-1.351
		c-0.147,0-0.248,0.037-0.304,0.109l-0.385,0.332c-0.221,0.184-0.441,0.275-0.662,0.275c-0.166,0-0.332-0.037-0.497-0.11l-1.903-0.8
		c-1.361-0.57-3.023-0.855-4.991-0.855c-3.493,0-6.348,0.938-8.563,2.812c-2.216,1.874-3.323,4.299-3.323,7.276
		c0,2.663,0.848,4.831,2.547,6.503c1.699,1.671,4.586,3.197,8.662,4.575c3.947,1.324,6.334,2.346,7.16,3.063
		c1.616,1.399,2.425,3.119,2.425,5.161c0,2.136-0.876,3.949-2.627,5.439s-3.892,2.235-6.422,2.235c-2.495,0-4.804-0.774-6.931-2.323
		s-3.52-3.467-4.181-5.754c-0.263-0.885-0.563-1.336-0.899-1.354c-0.375-0.018-0.563,0.247-0.563,0.8
		c0,0.699,0.239,1.875,0.717,3.53c0.423,1.526,0.652,2.362,0.69,2.509c0.22,1.031,0.386,1.669,0.496,1.918
		c0.11,0.247,0.331,0.481,0.662,0.703c0.79,0.533,2.036,1.001,3.735,1.406c1.701,0.404,3.26,0.606,4.676,0.606
		c3.916,0,7.124-1.093,9.624-3.278c2.501-2.188,3.751-4.998,3.751-8.435C362.396,48.422,359,44.773,352.207,42.55z"/>
	<path fill="#202020" d="M191.382,29.123c0-1.081-0.106-1.73-0.317-1.951c-0.212-0.219-0.824-0.328-1.835-0.328h-29.699
		c-0.625,0-1.036,0.132-1.229,0.398c-0.192,0.266-0.289,0.818-0.289,1.662c0,0.861-0.138,1.951-0.414,3.271
		c-0.221,1.026-0.331,1.731-0.331,2.116c0,0.478,0.165,0.724,0.496,0.742c0.331,0.018,0.58-0.33,0.745-1.048
		c0.368-1.655,0.887-2.78,1.558-3.378s1.752-0.896,3.241-0.896h7.308c0.698,0,1.145,0.092,1.337,0.275
		c0.194,0.186,0.291,0.608,0.291,1.271l0.027,0.719V59.35c0,1.547-0.248,2.621-0.744,3.219c-0.497,0.6-1.453,0.99-2.869,1.174
		c-0.606,0.072-0.911,0.252-0.911,0.539c0,0.395,0.276,0.592,0.83,0.592c0.183,0,0.8-0.055,1.851-0.166
		c0.535-0.055,1.189-0.082,1.962-0.082l2.156-0.027l2.018,0.027c1.308,0,2.137,0.027,2.487,0.082
		c0.682,0.111,1.133,0.166,1.354,0.166c0.517,0,0.774-0.197,0.774-0.594c0-0.306-0.322-0.513-0.965-0.619
		c-2.316-0.406-3.521-1.686-3.613-3.84l-0.027-1.077V31.672c0-0.865,0.104-1.409,0.317-1.63c0.211-0.22,0.721-0.331,1.53-0.331h7.75
		c1.544,0,2.582,0.197,3.116,0.593c0.533,0.396,0.919,1.247,1.158,2.552c0.11,0.588,0.331,0.873,0.662,0.854
		c0.404-0.035,0.597-0.328,0.579-0.879c-0.018-0.274-0.074-0.723-0.165-1.346C191.428,30.99,191.382,30.203,191.382,29.123z"/>
	<path fill="#202020" d="M333.719,62.016c1.342-1.648,2.013-3.07,2.013-4.262c0-0.493-0.17-0.732-0.509-0.713
		c-0.207,0.019-0.414,0.184-0.621,0.496c-2.058,3.254-6.692,4.881-13.907,4.881c-2.277,0-3.695-0.192-4.256-0.58
		c-0.559-0.387-0.838-1.362-0.838-2.928V48.744l-0.029-0.912c0-0.553,0.151-0.92,0.455-1.104c0.303-0.185,0.904-0.276,1.803-0.276
		h6.082c1.578,0,2.697,0.221,3.357,0.66c0.66,0.442,1.1,1.279,1.32,2.512l0.166,0.771c0.074,0.404,0.31,0.607,0.704,0.607
		c0.357,0,0.536-0.229,0.536-0.688c0-0.165-0.019-0.431-0.055-0.798c-0.109-1.101-0.166-2.209-0.166-3.328
		c0-1.468,0.082-3.09,0.246-4.871c0.02-0.273,0.031-0.476,0.031-0.604c0-0.477-0.18-0.725-0.537-0.744
		c-0.377-0.018-0.61,0.203-0.705,0.662c-0.24,1.214-0.506,1.986-0.8,2.316c-0.294,0.332-0.938,0.6-1.931,0.801
		c-1.121,0.221-2.646,0.331-4.578,0.331h-4.246c-0.791,0-1.266-0.087-1.42-0.263c-0.156-0.176-0.234-0.688-0.234-1.536V31.154
		c0-0.979,0.164-1.611,0.494-1.896c0.33-0.287,1.065-0.43,2.203-0.43h4.322c2.844,0,4.799,0.139,5.863,0.414
		s1.771,0.827,2.119,1.654c0.219,0.533,0.33,1.094,0.33,1.682v0.719c0,0.57,0.178,0.845,0.534,0.826
		c0.319-0.018,0.525-0.16,0.62-0.426c0.093-0.266,0.188-0.93,0.281-1.992l0.11-1.621c0.091-1.209,0.165-1.941,0.22-2.199
		c0.055-0.256,0.083-0.467,0.083-0.632c0-0.531-0.303-0.796-0.911-0.796c-0.238,0-0.605,0.037-1.103,0.109
		c-0.239,0.037-0.901,0.074-1.985,0.11l-3.916,0.193c-1.729,0.073-3.715,0.11-5.958,0.11c-3.694,0-6.856-0.147-9.487-0.441
		c-0.77-0.092-1.387-0.139-1.846-0.139c-0.828,0-1.241,0.252-1.241,0.757c0,0.343,0.265,0.513,0.8,0.513
		c1.672,0,2.799,0.456,3.377,1.367c0.58,0.912,0.869,2.685,0.869,5.317v23.34l-0.027,1.794c0,2.211-0.662,3.499-1.986,3.867
		l-1.047,0.305c-0.479,0.125-0.717,0.342-0.717,0.646c0,0.396,0.293,0.594,0.882,0.594c0.257,0,0.735-0.064,1.435-0.193
		c1.323-0.221,3.594-0.33,6.813-0.33c2.297,0,5.201,0.165,8.713,0.496c0.901,0.072,1.619,0.11,2.151,0.11
		C330.06,64.983,332.101,63.994,333.719,62.016z"/>
	<path fill="#202020" d="M283.558,1.004c0.063,0.028,0.221,0.08,0.875,0.204c0.434,0.078,0.779,0.258,1.029,0.532
		c0.256,0.283,0.551,0.799,0.876,1.528l6.991,16.201c0.225,0.515,0.441,0.755,0.686,0.755c0.234,0,0.443-0.234,0.658-0.74
		l6.854-16.054l0.371-0.896c0.328-0.784,0.813-1.302,1.439-1.536c0.3-0.102,0.362-0.273,0.362-0.4c0-0.223-0.14-0.35-0.386-0.35
		l-1.174,0.014l-0.969,0.014h-0.566c-0.133,0-0.533-0.018-1.225-0.055c-0.207-0.01-0.342-0.014-0.406-0.014
		c-0.451,0-0.557,0.195-0.566,0.359c-0.012,0.225,0.249,0.375,0.847,0.488c0.501,0.1,0.706,0.211,0.789,0.287
		c0.114,0.102,0.171,0.291,0.171,0.561c0,0.865-0.652,2.854-1.943,5.912l-3.023,7.183l-0.219,0.509
		c-0.289,0.638-0.396,0.717-0.406,0.724c0,0-0.09-0.003-0.248-0.377l-5.301-12.17c-0.377-0.876-0.568-1.513-0.568-1.89
		c0-0.207,0.039-0.354,0.113-0.428c0.058-0.059,0.221-0.162,0.671-0.328c0.286-0.111,0.345-0.277,0.345-0.397
		c0-0.136-0.061-0.364-0.479-0.364c-0.077,0-0.202,0.01-0.396,0.028c-0.405,0.037-0.69,0.056-0.875,0.056l-0.921,0.012l-1.311-0.012
		c-0.766,0-1.229-0.01-1.383-0.029c-0.216-0.02-0.338-0.027-0.409-0.027c-0.431,0-0.495,0.237-0.495,0.379
		C283.365,0.832,283.433,0.945,283.558,1.004z"/>
	<path fill="#202020" d="M194.162,19.494l1.03-0.027l1.021,0.014c0.689,0,1.147,0.018,1.362,0.055
		c0.623,0.096,0.971,0.115,1.139-0.066c0.07-0.076,0.1-0.18,0.089-0.303c-0.014-0.203-0.194-0.328-0.538-0.371
		c-0.747-0.08-1.254-0.297-1.509-0.646c-0.261-0.355-0.393-1.021-0.393-1.975V2.838c0-0.439,0.093-0.832,0.276-1.168
		c0.178-0.326,0.388-0.51,0.645-0.56l0.565-0.124c0.345-0.072,0.417-0.252,0.417-0.389c0-0.113-0.043-0.377-0.439-0.377
		c-0.097,0-0.264,0.018-0.525,0.056c-0.391,0.054-1.082,0.083-2.054,0.083c-0.676,0-1.321-0.033-1.919-0.098
		c-0.455-0.047-0.756-0.069-0.949-0.069c-0.378,0-0.446,0.208-0.453,0.331c-0.009,0.153,0.068,0.354,0.484,0.436
		c0.621,0.141,1.05,0.398,1.276,0.767c0.232,0.378,0.35,1.038,0.35,1.964v4.718c0,0.216-0.041,0.356-0.117,0.407
		c-0.051,0.035-0.212,0.093-0.712,0.093h-8.136c-0.733,0-0.9-0.085-0.938-0.122c-0.037-0.036-0.125-0.191-0.125-0.861v-4.94
		c0-0.655,0.1-1.126,0.296-1.396c0.195-0.269,0.592-0.48,1.181-0.629c0.301-0.078,0.454-0.218,0.454-0.416
		c0-0.146-0.066-0.392-0.508-0.392c-0.142,0-0.336,0.019-0.593,0.056c-0.561,0.072-1.173,0.109-1.819,0.109
		c-0.957,0-1.802-0.041-2.511-0.123c-0.372-0.046-0.654-0.073-0.836-0.084h-0.038c-0.391,0-0.434,0.266-0.434,0.379
		c0,0.154,0.086,0.348,0.492,0.404c0.75,0.113,1.275,0.343,1.561,0.68c0.284,0.337,0.429,0.899,0.429,1.672v11.858
		c0,1.272-0.073,2.174-0.216,2.679c-0.137,0.479-0.381,0.753-0.749,0.836l-0.688,0.166c-0.367,0.082-0.444,0.279-0.444,0.43
		c0,0.109,0.044,0.363,0.454,0.363c0.105,0,0.392-0.02,0.879-0.061c0.335-0.03,0.624-0.046,0.862-0.046l0.906-0.03l1.159,0.012
		c0.843,0,1.394,0.021,1.641,0.063c0.341,0.042,0.566,0.063,0.689,0.063c0.196,0,0.333-0.043,0.418-0.133
		c0.065-0.067,0.095-0.156,0.09-0.264c-0.008-0.178-0.123-0.401-0.621-0.454c-0.792-0.087-1.338-0.314-1.623-0.677
		c-0.286-0.363-0.432-1.019-0.432-1.945v-5.061c0-0.519,0.096-0.676,0.153-0.723c0.061-0.05,0.26-0.135,0.91-0.135h8.122
		c0.63,0,0.74,0.07,0.755,0.084c0.009,0.008,0.088,0.095,0.088,0.678v5.066l-0.014,0.541c0,1.361-0.444,2.098-1.355,2.254
		c-0.36,0.055-0.549,0.191-0.562,0.412c-0.005,0.114,0.024,0.206,0.088,0.273c0.071,0.073,0.179,0.111,0.322,0.111h0.029
		c0.063,0,0.305-0.018,0.962-0.07C193.786,19.508,193.999,19.494,194.162,19.494z"/>
	<path fill="#202020" d="M202.276,1.003c0.793,0,1.331,0.213,1.598,0.633c0.277,0.437,0.417,1.312,0.417,2.601v11.668l-0.014,0.899
		c0,1.06-0.299,1.657-0.915,1.829l-0.521,0.151c-0.363,0.095-0.439,0.285-0.439,0.429c0,0.15,0.071,0.406,0.55,0.406
		c0.136,0,0.377-0.033,0.735-0.1c0.653-0.107,1.793-0.163,3.389-0.163c1.136,0,2.599,0.084,4.348,0.249
		c0.448,0.035,0.813,0.054,1.084,0.054c1.26,0,2.318-0.513,3.146-1.522c0.693-0.854,1.03-1.573,1.03-2.2
		c0-0.405-0.217-0.466-0.346-0.466c-0.003,0-0.024,0-0.027,0c-0.14,0.014-0.268,0.111-0.392,0.299
		c-1.003,1.586-3.312,2.391-6.862,2.391c-1.383,0-1.887-0.146-2.065-0.27c-0.248-0.173-0.373-0.635-0.373-1.376v-5.087l-0.014-0.453
		c0-0.234,0.059-0.389,0.174-0.459c0.092-0.057,0.313-0.123,0.846-0.123h3.041c0.764,0,1.308,0.105,1.619,0.313
		c0.303,0.203,0.51,0.602,0.615,1.188l0.081,0.385c0.048,0.252,0.21,0.392,0.459,0.392c0.113,0,0.377-0.044,0.377-0.453
		c0-0.086-0.009-0.22-0.028-0.41c-0.055-0.538-0.083-1.095-0.083-1.653c0-0.727,0.041-1.543,0.122-2.428
		c0.01-0.141,0.016-0.243,0.016-0.309c0-0.4-0.232-0.473-0.371-0.48c-0.002,0-0.025,0-0.027,0c-0.161,0-0.367,0.072-0.438,0.42
		c-0.143,0.727-0.282,1.002-0.374,1.105c-0.09,0.102-0.32,0.246-0.905,0.365c-0.551,0.109-1.314,0.164-2.268,0.164h-2.124
		c-0.518,0-0.615-0.079-0.629-0.096c-0.021-0.023-0.089-0.143-0.089-0.695V2.637c0-0.564,0.114-0.783,0.21-0.867
		c0.099-0.084,0.357-0.188,1.03-0.188h2.161c1.407,0,2.385,0.068,2.905,0.203c0.502,0.131,0.825,0.38,0.987,0.764
		c0.104,0.252,0.157,0.521,0.157,0.801v0.357c0,0.453,0.223,0.523,0.38,0.523c0.001,0,0.001,0,0.002,0
		c0.256-0.016,0.362-0.164,0.405-0.287c0.05-0.143,0.098-0.479,0.146-1.024l0.056-0.81c0.045-0.6,0.082-0.964,0.108-1.084
		c0.029-0.134,0.043-0.248,0.043-0.34c0-0.188-0.073-0.507-0.563-0.507c-0.124,0-0.309,0.019-0.569,0.058
		c-0.08,0.012-0.316,0.031-0.981,0.053l-1.957,0.097c-0.846,0.036-1.846,0.056-2.974,0.056c-1.833,0-3.424-0.074-4.73-0.221
		c-0.388-0.047-0.703-0.069-0.937-0.069c-0.603,0-0.729,0.265-0.729,0.486C201.768,0.773,201.834,1.003,202.276,1.003z"/>
	<path fill="#202020" d="M274.33,1.028c0.818,0.132,1.358,0.387,1.602,0.755c0.249,0.377,0.375,1.133,0.375,2.246v11.822
		c0,1.145-0.098,1.9-0.289,2.246c-0.186,0.331-0.614,0.557-1.274,0.67c-0.344,0.056-0.519,0.195-0.519,0.418
		c0,0.146,0.063,0.391,0.481,0.391c0.171,0,0.39-0.013,0.667-0.04l1.621-0.097l2,0.03c0.686,0,1.172,0.02,1.445,0.059
		c0.214,0.032,0.396,0.048,0.541,0.048c0.467,0,0.536-0.27,0.536-0.432c0-0.303-0.448-0.4-0.784-0.445
		c-0.559-0.08-0.973-0.215-1.229-0.396c-0.252-0.18-0.469-0.496-0.642-0.943c-0.151-0.401-0.229-1.249-0.229-2.52V4.502
		c0-1.887,0.319-2.964,0.95-3.202l0.714-0.274c0.286-0.098,0.431-0.256,0.431-0.469c0-0.137-0.062-0.364-0.48-0.364
		c-0.055,0-0.172,0.005-0.353,0.017l-0.921,0.076c-0.484,0.03-1.071,0.045-1.746,0.045c-1.102,0-1.998-0.04-2.662-0.121
		c-0.338-0.041-0.556-0.009-0.676,0.118c-0.067,0.069-0.099,0.163-0.094,0.278C273.809,0.822,273.988,0.964,274.33,1.028z"/>
	<path fill="#202020" d="M251.28,0.988c0.917,0.123,1.627,0.633,2.111,1.512c0.494,0.895,0.745,2.143,0.745,3.707v9.385
		c0,0.969-0.131,1.676-0.391,2.102c-0.256,0.422-0.764,0.766-1.507,1.023c-0.317,0.107-0.473,0.258-0.46,0.452
		c0.016,0.132,0.098,0.353,0.494,0.353c0.105,0,0.277-0.017,0.524-0.051c0.317-0.041,0.657-0.063,1.011-0.063l0.652-0.025
		l1.406,0.069c0.26,0.014,1.049,0.056,1.191,0.083c0.152,0.019,0.291,0.027,0.428,0.027c0.254,0,0.398-0.138,0.398-0.377
		c0-0.18-0.096-0.405-0.548-0.46c-0.7-0.106-1.172-0.269-1.403-0.481c-0.229-0.211-0.375-0.611-0.436-1.182l-0.041-0.973
		l0.015-0.582V6.148c0-0.32,0.057-0.512,0.153-0.512c0.046,0,0.082,0.016,0.112,0.047l11.761,13.441l0.309,0.364
		c0.092,0.092,0.221,0.145,0.389,0.157c0.002,0,0.025,0.001,0.027,0.001c0.249,0,0.416-0.146,0.471-0.413
		c0.047-0.235,0.07-0.863,0.07-1.917V5.765l0.027-0.913V3.363c0-0.86,0.087-1.451,0.257-1.755c0.163-0.292,0.513-0.507,1.044-0.638
		c0.31-0.09,0.363-0.253,0.354-0.377c-0.015-0.145-0.098-0.387-0.495-0.387c-0.164,0-0.398,0.029-0.693,0.083
		c-0.33,0.056-0.771,0.081-1.348,0.081c-1.057,0-1.911-0.033-2.54-0.098c-0.272-0.027-0.466-0.039-0.59-0.039
		c-0.442,0-0.509,0.229-0.509,0.364c0,0.165,0.086,0.377,0.49,0.444c0.922,0.151,1.565,0.387,1.912,0.697
		c0.341,0.309,0.559,0.844,0.646,1.586l0.165,3.165l-0.015,1.863v6.819c-0.003,0.071-0.02,0.156-0.037,0.161
		c-0.007-0.002-0.078-0.031-0.311-0.296L254.439,0.672c-0.251-0.291-0.511-0.438-0.773-0.438c-0.119,0-0.291,0.004-0.516,0.014
		l-0.212,0.014l-1.481-0.041c-0.107-0.01-0.184-0.014-0.23-0.014c-0.372,0-0.412,0.254-0.412,0.363
		C250.814,0.729,250.894,0.932,251.28,0.988z M268.222,19.531L268.222,19.531v0.008V19.531z"/>
	<path fill="#202020" d="M228.139,1.154c0.785,0.114,1.311,0.348,1.563,0.693c0.256,0.352,0.387,1.016,0.387,1.975l0.027,0.781
		v7.006c0,1.93,0.334,3.52,0.992,4.727c0.588,1.055,1.527,1.899,2.791,2.513c1.259,0.611,2.694,0.921,4.268,0.921
		c1.352,0,2.64-0.26,3.827-0.773c1.194-0.515,2.126-1.216,2.77-2.084c1.012-1.364,1.523-3.334,1.523-5.855V4.231
		c0-1.131,0.081-1.907,0.241-2.304c0.153-0.384,0.499-0.688,1.03-0.906c0.236-0.099,0.356-0.241,0.356-0.422
		c0-0.223-0.136-0.352-0.37-0.352c-0.094,0-0.311,0.015-0.617,0.042c-0.232,0.026-0.865,0.04-1.886,0.04
		c-0.476,0-0.892-0.026-1.233-0.08c-0.398-0.066-0.69-0.104-0.893-0.111c-0.002,0-0.027-0.002-0.029-0.002
		c-0.229,0-0.359,0.143-0.359,0.393c0,0.161,0.085,0.362,0.496,0.404c0.752,0.07,1.292,0.353,1.602,0.839
		c0.318,0.499,0.479,1.321,0.479,2.442v7.138c0,2.377-0.538,4.176-1.601,5.349c-1.06,1.17-2.686,1.762-4.834,1.762
		c-2.399,0-4.13-0.708-5.144-2.104c-0.719-0.986-1.083-2.67-1.083-5.006V4.404l-0.028-0.905c0-0.87,0.087-1.477,0.256-1.804
		c0.164-0.313,0.499-0.527,0.992-0.639c0.439-0.08,0.531-0.285,0.531-0.443c0-0.098-0.041-0.324-0.426-0.324
		c-0.135,0-0.375,0.015-0.713,0.041c-0.408,0.038-0.658,0.056-0.763,0.056l-2.11,0.014c-0.189,0-0.498-0.014-0.918-0.04
		c-0.382-0.019-0.713-0.029-0.957-0.029c-0.521,0-0.632,0.236-0.632,0.433C227.675,0.91,227.756,1.098,228.139,1.154z"/>
	<path fill="#202020" d="M424.921,19.77c2.912,0,5.337-0.961,7.205-2.857c1.87-1.895,2.818-4.354,2.818-7.311
		c0-2.791-0.941-5.115-2.799-6.904C430.291,0.908,427.882,0,424.99,0c-1.395,0-2.776,0.265-4.107,0.786
		c-1.331,0.522-2.449,1.236-3.319,2.126c-0.825,0.844-1.489,1.906-1.974,3.158c-0.486,1.25-0.732,2.53-0.732,3.808
		c0,2.938,0.938,5.348,2.783,7.159C419.487,18.85,421.937,19.77,424.921,19.77z M425.453,18.753c-2.293,0-4.255-0.95-5.83-2.825
		c-1.582-1.881-2.383-4.225-2.383-6.965c0-2.394,0.624-4.322,1.855-5.732c1.23-1.404,2.914-2.117,5.004-2.117
		c2.443,0,4.51,0.912,6.145,2.712c1.64,1.802,2.471,4.087,2.471,6.789c0,2.349-0.691,4.313-2.057,5.841
		C429.296,17.98,427.545,18.753,425.453,18.753z"/>
	<path fill="#202020" d="M159.556,4.686c0.325,0,0.431-0.459,0.466-0.609c0.178-0.803,0.429-1.352,0.746-1.633
		c0.313-0.278,0.833-0.42,1.547-0.42h3.655c0.418,0,0.551,0.068,0.593,0.107c0.042,0.041,0.111,0.165,0.111,0.562l0.014,0.354
		v13.688c0,0.743-0.117,1.262-0.348,1.54c-0.228,0.274-0.688,0.46-1.363,0.548c-0.365,0.045-0.551,0.171-0.551,0.377
		c0,0.15,0.068,0.406,0.523,0.406c0.095,0,0.393-0.027,0.938-0.084c0.259-0.027,0.585-0.041,0.971-0.041l1.075-0.014l1.01,0.014
		c0.646,0,1.059,0.014,1.226,0.039c0.352,0.059,0.579,0.086,0.694,0.086c0.431,0,0.496-0.256,0.496-0.406
		c0-0.214-0.193-0.354-0.572-0.416c-1.111-0.195-1.673-0.789-1.717-1.816l-0.014-0.537V2.895c0-0.525,0.081-0.689,0.128-0.739
		c0.047-0.05,0.199-0.132,0.688-0.132h3.875c0.744,0,1.246,0.093,1.493,0.274c0.243,0.181,0.423,0.587,0.538,1.208
		c0.063,0.343,0.205,0.516,0.444,0.516c0.001,0,0.001,0,0.002,0c0.151-0.012,0.403-0.102,0.389-0.555
		c-0.01-0.143-0.039-0.371-0.085-0.686c-0.044-0.237-0.066-0.628-0.066-1.16c0-0.766-0.108-0.967-0.189-1.051
		c-0.083-0.086-0.274-0.199-0.996-0.199h-14.849c-0.354,0-0.583,0.08-0.702,0.244c-0.112,0.154-0.166,0.447-0.166,0.896
		c0,0.423-0.069,0.966-0.205,1.612c-0.113,0.523-0.167,0.878-0.167,1.081C159.186,4.605,159.406,4.677,159.556,4.686z"/>
	<path fill="#202020" d="M365.631,19.576c0.466,0,0.535-0.27,0.535-0.432c0-0.303-0.446-0.4-0.782-0.445
		c-0.559-0.08-0.972-0.215-1.227-0.396c-0.252-0.179-0.47-0.496-0.646-0.943c-0.149-0.4-0.227-1.247-0.227-2.52V4.502
		c0-1.887,0.32-2.963,0.95-3.202l0.713-0.274c0.287-0.098,0.434-0.256,0.434-0.469c0-0.137-0.063-0.364-0.482-0.364
		c-0.055,0-0.174,0.005-0.354,0.017l-0.922,0.076c-0.482,0.03-1.069,0.045-1.744,0.045c-1.104,0-1.998-0.04-2.662-0.121
		c-0.34-0.039-0.557-0.008-0.676,0.118c-0.067,0.069-0.099,0.163-0.093,0.276c0.013,0.219,0.189,0.361,0.531,0.425
		c0.819,0.132,1.358,0.387,1.603,0.755c0.248,0.375,0.375,1.131,0.375,2.246v11.822c0,1.145-0.098,1.9-0.289,2.244
		c-0.186,0.333-0.615,0.559-1.274,0.672c-0.345,0.056-0.519,0.195-0.519,0.418c0,0.146,0.063,0.391,0.481,0.391
		c0.171,0,0.392-0.013,0.669-0.04l1.617-0.097l2.002,0.03c0.686,0,1.172,0.02,1.445,0.059
		C365.305,19.561,365.487,19.576,365.631,19.576z"/>
	<path fill="#202020" d="M387.845,0.947c0.457,0,0.926,0.133,1.395,0.393c0.469,0.264,0.836,0.606,1.092,1.021l4.316,6.878
		c0.315,0.498,0.516,0.883,0.594,1.146c0.079,0.263,0.119,0.689,0.119,1.268v4.113l-0.014,0.596c0,0.959-0.098,1.586-0.291,1.865
		c-0.188,0.271-0.657,0.463-1.395,0.568c-0.452,0.066-0.547,0.279-0.547,0.444c0,0.101,0.041,0.337,0.425,0.337
		c0.089,0,0.267-0.02,0.54-0.061c0.223-0.031,0.665-0.046,1.357-0.046l1.069-0.03l1.091,0.053c0.453,0.029,0.781,0.057,1,0.084
		c0.396,0.047,0.629,0.07,0.732,0.07c0.516,0,0.593-0.271,0.593-0.433c0-0.155-0.091-0.349-0.525-0.392
		c-0.985-0.098-1.32-0.293-1.427-0.439c-0.109-0.149-0.24-0.601-0.24-1.897v-5.771c0-0.389,0.17-0.829,0.505-1.306l4.576-6.808
		c0.526-0.741,1.194-1.248,1.985-1.507c0.279-0.088,0.421-0.23,0.421-0.426c0-0.106-0.04-0.354-0.415-0.354
		c-0.024,0-0.049,0.001-0.074,0.002c-0.139,0.011-0.385,0.033-0.736,0.07c-0.26,0.027-0.859,0.041-1.785,0.041
		c-1.01,0-1.656-0.021-1.921-0.062c-0.36-0.053-0.604-0.077-0.747-0.077c-0.354,0-0.419,0.211-0.426,0.335
		c-0.01,0.149,0.055,0.345,0.412,0.431c1.099,0.262,1.655,0.676,1.655,1.23c0,0.225-0.164,0.754-0.945,1.993l-0.673,1.071
		l-2.129,3.23c-0.07,0.099-0.138,0.148-0.201,0.148c-0.041,0-0.099-0.053-0.158-0.145l-3.076-4.83l-0.389-0.664
		c-0.48-0.779-0.582-1.121-0.582-1.27c0-0.392,0.277-0.665,0.848-0.836c0.326-0.098,0.395-0.271,0.395-0.4
		c0-0.141-0.066-0.377-0.509-0.377c-0.086,0-0.327,0.02-0.74,0.062c-0.372,0.042-1.214,0.062-2.575,0.062
		c-0.643,0-1.268-0.035-1.857-0.104c-0.242-0.03-0.484-0.047-0.717-0.047c-0.465,0-0.535,0.258-0.535,0.411
		C387.335,0.724,387.402,0.947,387.845,0.947z"/>
	<path fill="#202020" d="M437.921,0.989c0.527,0.045,0.898,0.12,1.107,0.224c0.198,0.099,0.387,0.299,0.562,0.594
		c0.272,0.45,0.411,1.109,0.411,1.96V16.21c0,0.878-0.102,1.501-0.303,1.853c-0.192,0.338-0.572,0.57-1.129,0.693
		c-0.341,0.075-0.514,0.215-0.514,0.416c0,0.131,0.062,0.35,0.473,0.35h0.045c0.133-0.008,0.34-0.02,0.617-0.037l0.092-0.005
		c0.387-0.036,0.699-0.054,0.93-0.054l1.061-0.014l0.955,0.015c0.592,0,1.043,0.021,1.343,0.06c0.36,0.042,0.647,0.063,0.854,0.063
		c0.206,0,0.35-0.046,0.438-0.143c0.066-0.072,0.096-0.169,0.086-0.281c-0.01-0.17-0.119-0.372-0.592-0.372
		c-0.625,0-1.109-0.201-1.477-0.614c-0.366-0.412-0.552-0.977-0.552-1.674v-5.141c0-0.367,0.022-0.638,0.065-0.808
		c0.033-0.146,0.264-0.208,0.452-0.233c0.322-0.047,1.036-0.069,2.12-0.069c1.178,0,2.078,0.078,2.68,0.231
		c0.275,0.068,0.473,0.18,0.584,0.331c0.118,0.161,0.232,0.481,0.338,0.952c0.113,0.512,0.286,0.76,0.525,0.76
		c0.11,0,0.363-0.042,0.363-0.438c0-0.088-0.009-0.223-0.026-0.4c-0.038-0.283-0.056-0.949-0.056-2.033
		c0-0.394,0.004-0.666,0.014-0.834l0.084-1.361c0.012-0.207-0.022-0.354-0.108-0.443c-0.06-0.064-0.144-0.098-0.241-0.098
		c-0.146,0-0.33,0.072-0.391,0.422c-0.096,0.582-0.324,0.996-0.68,1.229c-0.367,0.239-0.966,0.362-1.783,0.362l-1.623,0.025
		l-0.445,0.016l-1.184-0.028c-0.422,0-0.648-0.095-0.676-0.263V8.281l-0.013-0.256V2.574c0-0.506,0.106-0.818,0.314-0.93
		c0.158-0.085,0.609-0.188,1.858-0.188c0.773,0,1.428,0.024,1.939,0.07l1.623,0.164c0.734,0.066,1.021,0.179,1.132,0.262
		c0.108,0.082,0.267,0.293,0.407,0.844c0.07,0.284,0.121,0.57,0.148,0.85c0.029,0.387,0.23,0.445,0.348,0.445
		c0.217,0,0.476-0.129,0.476-0.746c0-0.99,0.077-1.791,0.231-2.382c0.049-0.206,0.072-0.364,0.072-0.481
		c0-0.272-0.15-0.428-0.412-0.428c-0.135,0-0.295,0.02-0.476,0.057c-0.235,0.047-0.768,0.087-1.585,0.123l-1.918,0.096
		c-0.483,0.027-1.577,0.041-3.345,0.041c-1.938,0-3.331-0.041-4.139-0.122c-0.471-0.048-0.747-0.07-0.866-0.07
		c-0.275,0-0.46,0.056-0.566,0.171c-0.072,0.078-0.104,0.178-0.094,0.295C437.485,0.76,437.552,0.959,437.921,0.989z"/>
	<path fill="#202020" d="M306.625,1.003c0.793,0,1.33,0.213,1.599,0.633c0.277,0.437,0.417,1.31,0.417,2.601v11.668l-0.014,0.899
		c0,1.06-0.299,1.657-0.915,1.829l-0.521,0.151c-0.363,0.095-0.44,0.285-0.44,0.429c0,0.15,0.072,0.406,0.551,0.406
		c0.137,0,0.377-0.033,0.734-0.1c0.654-0.107,1.793-0.163,3.388-0.163c1.138,0,2.601,0.084,4.349,0.249
		c0.448,0.035,0.813,0.054,1.084,0.054c1.261,0,2.318-0.513,3.146-1.524c0.694-0.854,1.032-1.572,1.032-2.198
		c0-0.405-0.218-0.466-0.347-0.466c-0.005,0-0.024,0-0.028,0c-0.137,0.014-0.269,0.113-0.392,0.299
		c-1.003,1.586-3.312,2.391-6.861,2.391c-1.382,0-1.887-0.146-2.066-0.27c-0.247-0.173-0.372-0.637-0.372-1.376v-5.087l-0.014-0.453
		c0-0.234,0.059-0.391,0.176-0.459c0.09-0.057,0.311-0.123,0.844-0.123h3.041c0.764,0,1.307,0.105,1.619,0.313
		c0.303,0.203,0.508,0.602,0.613,1.188l0.082,0.385c0.047,0.252,0.211,0.392,0.459,0.392c0.113,0,0.377-0.044,0.377-0.453
		c0-0.087-0.009-0.221-0.028-0.409c-0.054-0.556-0.082-1.111-0.082-1.654c0-0.721,0.042-1.535,0.123-2.426
		c0.011-0.141,0.017-0.245,0.017-0.311c0-0.4-0.234-0.473-0.373-0.48c-0.002,0-0.025,0-0.027,0c-0.16,0-0.365,0.072-0.438,0.418
		c-0.143,0.729-0.283,1.006-0.375,1.107c-0.089,0.102-0.318,0.246-0.904,0.365c-0.551,0.109-1.313,0.164-2.268,0.164h-2.123
		c-0.518,0-0.615-0.079-0.63-0.096c-0.021-0.023-0.089-0.143-0.089-0.695V2.637c0-0.564,0.114-0.783,0.21-0.867
		c0.099-0.084,0.357-0.188,1.03-0.188h2.161c1.406,0,2.383,0.068,2.905,0.203c0.495,0.129,0.826,0.387,0.985,0.764
		c0.104,0.251,0.156,0.521,0.156,0.801v0.357c0,0.453,0.224,0.523,0.381,0.523c0.001,0,0.002,0,0.002,0
		c0.259-0.016,0.364-0.164,0.405-0.285c0.051-0.143,0.099-0.479,0.146-1.026l0.056-0.81c0.047-0.613,0.083-0.967,0.108-1.084
		c0.029-0.135,0.043-0.248,0.043-0.34c0-0.188-0.072-0.507-0.563-0.507c-0.125,0-0.311,0.019-0.568,0.058
		c-0.081,0.012-0.316,0.031-0.981,0.053l-1.958,0.097c-0.846,0.036-1.846,0.056-2.975,0.056c-1.832,0-3.424-0.074-4.73-0.221
		c-0.389-0.047-0.703-0.069-0.937-0.069c-0.603,0-0.729,0.265-0.729,0.486C306.117,0.773,306.183,1.003,306.625,1.003z"/>
	<path fill="#202020" d="M323.832,1.084l0.646,0.098c0.95,0.157,1.412,0.907,1.412,2.297l0.027,1.435v9.916
		c0,1.532-0.113,2.569-0.335,3.085c-0.218,0.498-0.665,0.805-1.368,0.938c-0.358,0.069-0.434,0.242-0.434,0.375
		c0,0.119,0.043,0.393,0.453,0.393c0.143,0,0.39-0.02,0.756-0.057c0.436-0.046,0.812-0.068,1.121-0.068l0.713-0.014l1.326,0.016
		c0.799,0,1.368,0.02,1.74,0.06c0.434,0.042,0.695,0.063,0.824,0.063c0.24,0,0.4-0.049,0.489-0.146
		c0.058-0.064,0.084-0.148,0.075-0.238c-0.014-0.23-0.218-0.369-0.608-0.412c-0.803-0.08-1.401-0.271-1.778-0.572
		c-0.275-0.216-0.449-0.459-0.52-0.725c-0.076-0.279-0.114-0.816-0.114-1.6l-0.014-0.551v-4.316c0-0.123,0.017-0.279,0.098-0.341
		l0.263-0.048h1.834c0.459,0,0.781,0.167,0.984,0.514l3.626,5.545c0.684,1.035,1.368,1.793,2.036,2.257
		c0.674,0.466,1.444,0.702,2.289,0.702c0.511,0,0.977-0.059,1.387-0.172c0.459-0.13,0.68-0.281,0.693-0.477
		c0.008-0.102-0.03-0.166-0.063-0.203c-0.057-0.066-0.146-0.102-0.273-0.11l-0.441-0.026c-0.953-0.062-2.02-0.949-3.172-2.635
		l-4.178-6.17c2.227-1.145,3.355-2.773,3.355-4.844c0-1.604-0.557-2.83-1.656-3.643c-1.09-0.807-2.723-1.216-4.852-1.216
		c-0.554,0-1.191,0.022-1.949,0.069c-1.01,0.064-1.735,0.098-2.159,0.098c-0.485,0-0.896-0.016-1.22-0.043
		c-0.57-0.035-0.895-0.055-0.973-0.055c-0.502,0-0.577,0.246-0.577,0.392C323.297,0.875,323.476,1.02,323.832,1.084z M329.56,1.348
		c1.42,0,2.604,0.426,3.519,1.265c0.911,0.839,1.374,1.921,1.374,3.22c0,1.117-0.338,2.008-1.003,2.647
		c-0.667,0.641-1.599,0.966-2.771,0.966h-1.562c-0.514,0-0.679-0.09-0.731-0.143s-0.141-0.219-0.141-0.745v-5.62l-0.014-0.453
		c0-0.435,0.092-0.736,0.272-0.893C328.691,1.43,329.045,1.348,329.56,1.348z"/>
	<path fill="#202020" d="M368.458,4.686c0.323,0,0.43-0.459,0.465-0.609c0.179-0.802,0.429-1.352,0.745-1.633
		c0.313-0.278,0.835-0.42,1.548-0.42h3.654c0.419,0,0.553,0.068,0.595,0.107c0.04,0.041,0.11,0.165,0.11,0.562l0.014,0.354v13.688
		c0,0.742-0.117,1.261-0.348,1.54c-0.227,0.274-0.688,0.46-1.362,0.548c-0.366,0.045-0.551,0.171-0.551,0.377
		c0,0.15,0.067,0.406,0.522,0.406c0.096,0,0.393-0.027,0.938-0.084c0.26-0.027,0.586-0.041,0.973-0.041l1.072-0.014l1.012,0.014
		c0.646,0,1.061,0.014,1.227,0.039c0.35,0.059,0.578,0.086,0.693,0.086c0.432,0,0.496-0.256,0.496-0.406
		c0-0.214-0.193-0.354-0.574-0.416c-1.11-0.195-1.672-0.789-1.715-1.817l-0.015-0.536V2.895c0-0.525,0.081-0.689,0.128-0.739
		c0.048-0.05,0.199-0.132,0.688-0.132h3.874c0.744,0,1.246,0.093,1.494,0.274c0.242,0.181,0.422,0.587,0.537,1.208
		c0.063,0.343,0.204,0.516,0.444,0.516c0.001,0,0.001,0,0.001,0c0.152-0.012,0.404-0.102,0.391-0.555
		c-0.01-0.136-0.036-0.352-0.084-0.686c-0.047-0.236-0.068-0.616-0.068-1.16c0-0.758-0.102-0.959-0.189-1.051
		c-0.082-0.086-0.275-0.199-0.996-0.199h-14.849c-0.353,0-0.583,0.08-0.702,0.244c-0.111,0.153-0.166,0.447-0.166,0.896
		c0,0.423-0.068,0.966-0.205,1.612c-0.112,0.525-0.168,0.88-0.168,1.081C368.087,4.605,368.308,4.677,368.458,4.686z"/>
	<path fill="#202020" d="M344.042,17.367c0.114,0.537,0.195,0.849,0.254,0.98c0.064,0.143,0.188,0.276,0.369,0.396
		c0.404,0.273,1.045,0.516,1.904,0.72c0.854,0.202,1.65,0.306,2.363,0.306c1.977,0,3.619-0.561,4.884-1.666
		c1.269-1.11,1.911-2.557,1.911-4.299c0-2.575-1.739-4.45-5.17-5.574c-1.732-0.575-2.833-0.977-3.27-1.194
		c-0.428-0.212-0.83-0.556-1.195-1.018c-0.414-0.539-0.624-1.189-0.624-1.936c0-0.837,0.323-1.546,0.96-2.106
		c0.643-0.564,1.453-0.85,2.41-0.85c1.219,0,2.34,0.32,3.328,0.951c0.987,0.629,1.65,1.438,1.971,2.406
		c0.17,0.504,0.346,0.737,0.553,0.737c0.15,0,0.404-0.069,0.404-0.535c0-0.079-0.022-0.257-0.072-0.581l-0.219-1.421
		c-0.119-0.767-0.179-1.23-0.179-1.376c0-0.521-0.148-0.785-0.454-0.785c-0.107,0-0.188,0.033-0.222,0.082l-0.192,0.164
		c-0.163,0.135-0.313,0.137-0.467,0.066l-0.953-0.4C351.647,0.146,350.794,0,349.801,0c-1.766,0-3.23,0.482-4.353,1.432
		c-1.127,0.953-1.699,2.205-1.699,3.72c0,1.356,0.439,2.476,1.305,3.329c0.856,0.844,2.328,1.622,4.373,2.313
		c1.951,0.656,3.143,1.164,3.545,1.513c0.778,0.674,1.174,1.515,1.174,2.498c0,1.029-0.43,1.916-1.275,2.636
		c-0.852,0.726-1.908,1.093-3.141,1.093c-1.218,0-2.361-0.384-3.4-1.141s-1.729-1.706-2.051-2.82
		c-0.149-0.503-0.323-0.741-0.572-0.755c-0.139,0-0.371,0.066-0.371,0.509c0,0.358,0.122,0.962,0.363,1.793
		C343.909,16.883,344.023,17.299,344.042,17.367z"/>
	<path fill="#202020" d="M452.462,87.059c-0.047-0.055-0.121-0.084-0.221-0.09l-0.326-0.021c-0.694-0.045-1.475-0.694-2.319-1.933
		l-3.068-4.529c1.636-0.85,2.466-2.056,2.466-3.588c0-1.193-0.416-2.105-1.235-2.713c-0.81-0.599-2.021-0.902-3.599-0.902
		c-0.406,0-0.879,0.018-1.442,0.051c-0.747,0.047-1.282,0.071-1.593,0.071c-0.355,0-0.656-0.011-0.898-0.03
		c-0.426-0.027-0.662-0.041-0.72-0.041c-0.396,0-0.455,0.199-0.455,0.317c0,0.179,0.14,0.296,0.419,0.347l0.477,0.07
		c0.686,0.114,1.02,0.66,1.02,1.67l0.02,1.059v7.322c0,1.129-0.082,1.892-0.246,2.268c-0.154,0.359-0.478,0.58-0.989,0.676
		c-0.282,0.055-0.342,0.196-0.342,0.305c0,0.096,0.036,0.318,0.362,0.318c0.102,0,0.273-0.014,0.561-0.042
		c0.32-0.033,0.599-0.05,0.826-0.05l0.527-0.011l0.979,0.011c0.576,0,1.008,0.016,1.282,0.045c0.319,0.031,0.513,0.047,0.61,0.047
		c0.188,0,0.313-0.039,0.385-0.119c0.032-0.037,0.07-0.102,0.061-0.195c-0.01-0.186-0.17-0.297-0.475-0.33
		c-0.587-0.059-1.023-0.199-1.299-0.418c-0.195-0.152-0.322-0.328-0.373-0.52c-0.056-0.202-0.083-0.596-0.083-1.174l-0.011-3.595
		c0-0.112,0.021-0.19,0.058-0.224L443,81.076h1.354c0.328,0,0.558,0.119,0.703,0.367l2.678,4.096
		c0.509,0.768,1.017,1.331,1.512,1.674c0.502,0.348,1.076,0.523,1.707,0.523c0.38,0,0.727-0.044,1.031-0.129
		c0.242-0.068,0.521-0.174,0.532-0.375C452.522,87.146,452.491,87.091,452.462,87.059z M442.751,75.004
		c0-0.313,0.064-0.527,0.191-0.639c0.133-0.113,0.389-0.172,0.76-0.172c1.043,0,1.912,0.311,2.581,0.926
		c0.667,0.613,1.005,1.405,1.005,2.357c0,0.816-0.246,1.467-0.732,1.934c-0.484,0.468-1.167,0.705-2.025,0.705h-1.153
		c-0.384,0-0.491-0.066-0.52-0.096c-0.03-0.029-0.097-0.139-0.097-0.531v-4.15L442.751,75.004z"/>
	<path fill="#202020" d="M265.568,79.221c-1.275-0.423-2.088-0.72-2.412-0.882c-0.312-0.153-0.605-0.403-0.871-0.743
		c-0.303-0.393-0.456-0.868-0.456-1.411c0-0.61,0.235-1.127,0.699-1.534c0.47-0.412,1.062-0.621,1.761-0.621
		c0.895,0,1.717,0.236,2.443,0.698c0.723,0.462,1.209,1.056,1.443,1.763c0.132,0.391,0.266,0.564,0.434,0.564
		c0.099,0,0.328-0.042,0.328-0.425c0-0.04-0.007-0.126-0.053-0.435l-0.163-1.049c-0.108-0.698-0.132-0.936-0.132-1.012
		c0-0.402-0.118-0.607-0.361-0.607c-0.092,0-0.158,0.029-0.184,0.067l-0.141,0.12c-0.113,0.094-0.206,0.094-0.318,0.045
		l-0.701-0.295c-0.514-0.215-1.146-0.324-1.885-0.324c-1.311,0-2.398,0.357-3.232,1.064c-0.839,0.709-1.266,1.641-1.266,2.769
		c0,1.009,0.328,1.843,0.973,2.479c0.637,0.626,1.728,1.203,3.24,1.715c1.438,0.481,2.314,0.856,2.608,1.11
		c0.569,0.492,0.857,1.105,0.857,1.824c0,0.751-0.313,1.398-0.933,1.924c-0.624,0.531-1.398,0.801-2.301,0.801
		c-0.893,0-1.732-0.281-2.494-0.838c-0.763-0.553-1.268-1.248-1.504-2.066c-0.071-0.242-0.193-0.565-0.45-0.578
		c-0.091,0-0.303,0.039-0.303,0.404c0,0.27,0.089,0.705,0.269,1.332c0.156,0.563,0.24,0.871,0.254,0.92
		c0.084,0.392,0.146,0.631,0.189,0.729c0.049,0.109,0.145,0.213,0.283,0.306c0.305,0.204,0.78,0.385,1.416,0.535
		c0.633,0.15,1.222,0.227,1.75,0.227c1.467,0,2.688-0.416,3.625-1.238c0.945-0.824,1.424-1.899,1.424-3.195
		C269.406,81.447,268.114,80.055,265.568,79.221z"/>
	<path fill="#202020" d="M324.001,73.293c-0.123,0-0.298,0.021-0.516,0.063c-0.246,0.039-0.58,0.061-0.992,0.061
		c-0.781,0-1.411-0.025-1.875-0.073c-0.199-0.02-0.343-0.029-0.437-0.029c-0.364,0-0.403,0.208-0.403,0.298
		c0,0.109,0.05,0.299,0.386,0.355c0.675,0.111,1.144,0.283,1.396,0.509c0.246,0.222,0.404,0.61,0.468,1.152l0.123,2.335
		l-0.012,6.411c-0.001,0.04-0.007,0.064-0.012,0.077c-0.029-0.021-0.088-0.073-0.195-0.195l-9.367-10.609
		c-0.195-0.225-0.389-0.333-0.591-0.333c-0.089,0-0.216,0.003-0.384,0.011l-0.152,0.01l-1.094-0.029
		c-0.079-0.008-0.137-0.012-0.172-0.012c-0.207,0-0.332,0.111-0.332,0.299c0,0.105,0.047,0.289,0.367,0.336
		c0.677,0.09,1.18,0.451,1.54,1.102c0.362,0.656,0.546,1.572,0.546,2.723v6.931c0,0.711-0.096,1.229-0.285,1.538
		c-0.186,0.307-0.555,0.557-1.098,0.744c-0.248,0.084-0.369,0.206-0.357,0.365c0.012,0.105,0.079,0.283,0.393,0.283
		c0.078,0,0.201-0.012,0.391-0.037c0.229-0.03,0.479-0.046,0.744-0.046l0.48-0.019l1.036,0.051c0.634,0.033,0.823,0.051,0.878,0.061
		c0.122,0.014,0.227,0.021,0.319,0.021c0.202,0,0.323-0.115,0.323-0.309c0-0.143-0.075-0.323-0.43-0.366
		c-0.512-0.077-0.855-0.195-1.021-0.349c-0.164-0.151-0.268-0.441-0.311-0.852l-0.03-0.718l0.009-7.343
		c0-0.24,0.045-0.35,0.086-0.35c0.024,0,0.045,0.01,0.062,0.025l8.683,9.927l0.23,0.271c0.072,0.072,0.174,0.115,0.306,0.123
		c0.002,0,0.022,0,0.022,0c0.197,0,0.33-0.115,0.375-0.326c0.036-0.174,0.053-0.627,0.053-1.422v-8.529l0.021-0.676v-1.1
		c0-0.63,0.063-1.061,0.184-1.281c0.116-0.209,0.368-0.362,0.754-0.457c0.249-0.07,0.292-0.205,0.283-0.309
		C324.382,73.488,324.316,73.293,324.001,73.293z M322.724,87.592L322.724,87.592v0.005V87.592z"/>
	<path fill="#202020" d="M307.532,84.565c-0.001,0-0.003,0-0.003,0c-0.113,0.011-0.215,0.086-0.313,0.234
		c-0.735,1.163-2.431,1.753-5.042,1.753c-1.016,0-1.381-0.107-1.51-0.195c-0.12-0.084-0.264-0.322-0.264-0.992v-3.758l-0.01-0.334
		c0-0.162,0.039-0.268,0.115-0.314c0.055-0.032,0.204-0.086,0.609-0.086h2.246c0.559,0,0.954,0.076,1.178,0.225
		c0.218,0.146,0.367,0.434,0.443,0.86l0.06,0.282c0.039,0.201,0.169,0.313,0.368,0.313c0.092,0,0.306-0.035,0.306-0.362
		c0-0.063-0.007-0.163-0.021-0.306c-0.04-0.396-0.061-0.807-0.061-1.219c0-0.54,0.029-1.142,0.09-1.79
		c0.008-0.104,0.012-0.182,0.012-0.231c0-0.33-0.21-0.377-0.322-0.382c-0.105,0-0.293,0.042-0.352,0.331
		c-0.104,0.53-0.204,0.73-0.269,0.805c-0.064,0.072-0.229,0.174-0.653,0.261c-0.405,0.079-0.967,0.12-1.67,0.12h-1.568
		c-0.38,0-0.439-0.057-0.443-0.061c-0.006-0.007-0.059-0.078-0.059-0.494v-4.108c0-0.407,0.08-0.562,0.146-0.618
		c0.057-0.05,0.229-0.133,0.742-0.133h1.596c1.035,0,1.755,0.051,2.138,0.15c0.361,0.093,0.593,0.273,0.708,0.547
		c0.076,0.183,0.115,0.377,0.115,0.58v0.266c0,0.357,0.182,0.412,0.311,0.412h0.002c0.16-0.009,0.275-0.09,0.324-0.229
		c0.037-0.11,0.074-0.367,0.109-0.764l0.041-0.597c0.032-0.441,0.06-0.709,0.079-0.8c0.022-0.105,0.033-0.188,0.033-0.255
		c0-0.256-0.162-0.402-0.446-0.402c-0.093,0-0.235,0.014-0.424,0.042c-0.056,0.009-0.227,0.022-0.721,0.039l-1.445,0.071
		c-0.634,0.027-1.372,0.041-2.195,0.041c-1.361,0-2.535-0.055-3.489-0.162c-0.288-0.035-0.522-0.053-0.696-0.053
		c-0.492,0-0.565,0.243-0.565,0.389c0,0.09,0.04,0.297,0.403,0.297c0.574,0,0.963,0.153,1.155,0.455
		c0.202,0.316,0.304,0.957,0.304,1.904v8.617l-0.01,0.664c0,0.768-0.215,1.201-0.654,1.324l-0.385,0.11
		c-0.285,0.075-0.346,0.229-0.346,0.345c0,0.122,0.057,0.328,0.436,0.328c0.102,0,0.281-0.024,0.547-0.074
		c0.48-0.079,1.32-0.12,2.497-0.12c0.844,0,1.923,0.062,3.21,0.185c0.342,0.027,0.603,0.039,0.803,0.039
		c0.939,0,1.729-0.383,2.344-1.136c0.51-0.624,0.768-1.176,0.768-1.642C307.833,84.604,307.64,84.565,307.532,84.565z"/>
	<path fill="#202020" d="M293.541,86.949c-0.41-0.059-0.711-0.155-0.895-0.287c-0.182-0.129-0.339-0.36-0.465-0.684
		c-0.111-0.293-0.167-0.916-0.167-1.851v-7.635c0-1.378,0.229-2.165,0.685-2.339l0.523-0.201c0.281-0.095,0.34-0.254,0.34-0.372
		c0-0.09-0.037-0.298-0.383-0.298c-0.042,0-0.129,0.004-0.264,0.011l-0.681,0.058c-0.353,0.022-0.786,0.033-1.286,0.033
		c-0.818,0-1.479-0.03-1.964-0.09c-0.264-0.03-0.428-0.004-0.522,0.096c-0.039,0.04-0.082,0.111-0.076,0.227
		c0.006,0.121,0.084,0.279,0.416,0.34c0.598,0.098,0.988,0.281,1.164,0.545c0.182,0.273,0.273,0.825,0.273,1.643v8.73
		c0,0.84-0.072,1.395-0.211,1.645c-0.133,0.236-0.443,0.398-0.92,0.481c-0.337,0.053-0.407,0.212-0.407,0.336
		c0,0.095,0.037,0.317,0.384,0.317c0.132,0,0.3-0.01,0.494-0.03l1.194-0.071l1.478,0.023c0.506,0,0.863,0.014,1.063,0.043
		c0.159,0.023,0.295,0.035,0.403,0.035c0.383,0,0.424-0.244,0.424-0.348C294.142,87.061,293.798,86.984,293.541,86.949z"/>
	<path fill="#202020" d="M285.611,83.568c-0.106,0.007-0.24,0.087-0.498,0.611c-0.369,0.752-1.043,1.403-2.004,1.935
		c-0.963,0.532-1.958,0.804-2.952,0.804c-1.705,0-3.118-0.666-4.204-1.979c-1.088-1.32-1.641-3.046-1.641-5.132
		c0-1.807,0.494-3.249,1.469-4.286c0.973-1.037,2.324-1.563,4.018-1.563c2.123,0,3.83,1.102,5.072,3.275
		c0.192,0.342,0.324,0.48,0.473,0.48c0,0,0,0,0.002,0c0.104-0.01,0.185-0.064,0.244-0.178l0.031-0.102
		c0.004-0.015,0.006-0.03,0.004-0.045l-0.356-2.699c-0.017-0.119-0.063-0.481-0.322-0.481c-0.058,0-0.147,0.022-0.375,0.188
		c-0.04,0.032-0.065,0.046-0.076,0.052l-0.138-0.047l-0.562-0.281c-1.212-0.65-2.559-0.98-4.002-0.98
		c-2.112,0-3.892,0.718-5.29,2.133c-1.4,1.416-2.109,3.217-2.109,5.354c0,2.135,0.686,3.885,2.04,5.196
		c1.351,1.31,3.155,1.974,5.359,1.974c1.899,0,3.662-0.51,5.242-1.515c0.321-0.208,0.494-0.413,0.526-0.616l0.317-1.672l0.011-0.123
		C285.89,83.589,285.695,83.569,285.611,83.568z"/>
	<path fill="#202020" d="M340.494,83.568c-0.001,0-0.003,0-0.004,0c-0.106,0.007-0.24,0.087-0.496,0.611
		c-0.369,0.754-1.044,1.404-2.004,1.935c-0.965,0.532-1.958,0.804-2.954,0.804c-1.703,0-3.118-0.666-4.202-1.979
		c-1.089-1.318-1.641-3.045-1.641-5.132c0-1.808,0.493-3.25,1.467-4.286c0.973-1.037,2.324-1.563,4.019-1.563
		c2.123,0,3.831,1.102,5.073,3.275c0.19,0.342,0.322,0.48,0.471,0.48c0,0,0,0,0.002,0c0.104-0.01,0.185-0.064,0.246-0.178
		l0.03-0.102c0.004-0.015,0.005-0.03,0.003-0.045l-0.355-2.699c-0.017-0.119-0.064-0.481-0.322-0.481
		c-0.058,0-0.146,0.022-0.375,0.188c-0.04,0.032-0.065,0.046-0.077,0.052l-0.137-0.047l-0.562-0.281
		c-1.213-0.65-2.56-0.98-4.002-0.98c-2.111,0-3.892,0.718-5.291,2.133c-1.398,1.415-2.107,3.217-2.107,5.354
		s0.686,3.885,2.038,5.196c1.352,1.31,3.155,1.974,5.36,1.974c1.898,0,3.663-0.51,5.242-1.515c0.323-0.21,0.496-0.415,0.525-0.616
		l0.318-1.674l0.01-0.121C340.769,83.594,340.58,83.568,340.494,83.568z"/>
	<path fill="#202020" d="M390.796,84.565c-0.002,0-0.003,0-0.004,0.001c-0.109,0.01-0.215,0.088-0.313,0.233
		c-0.734,1.163-2.432,1.753-5.043,1.753c-1.014,0-1.38-0.107-1.508-0.195c-0.121-0.084-0.264-0.322-0.264-0.992v-3.758l-0.011-0.334
		c0-0.162,0.039-0.268,0.114-0.314c0.066-0.039,0.227-0.086,0.61-0.086h2.246c0.558,0,0.954,0.076,1.179,0.225
		c0.218,0.146,0.367,0.435,0.443,0.86l0.06,0.282c0.036,0.201,0.167,0.313,0.366,0.313c0.094,0,0.307-0.035,0.307-0.362
		c0-0.063-0.006-0.163-0.02-0.306c-0.041-0.406-0.062-0.816-0.062-1.219c0-0.542,0.03-1.144,0.091-1.803
		c0.007-0.099,0.012-0.17,0.012-0.219c0-0.33-0.211-0.377-0.322-0.382c-0.106,0-0.292,0.042-0.353,0.331
		c-0.103,0.531-0.204,0.73-0.27,0.805c-0.063,0.072-0.229,0.176-0.653,0.261c-0.404,0.079-0.966,0.12-1.668,0.12h-1.568
		c-0.381,0-0.441-0.059-0.443-0.061c-0.006-0.007-0.059-0.077-0.059-0.494v-4.108c0-0.407,0.079-0.562,0.146-0.618
		c0.056-0.05,0.229-0.133,0.74-0.133h1.596c1.037,0,1.756,0.051,2.137,0.15c0.363,0.093,0.596,0.273,0.712,0.547
		c0.075,0.183,0.113,0.377,0.113,0.58v0.266c0,0.357,0.183,0.412,0.31,0.412c0.001,0,0.002,0,0.002,0
		c0.161-0.009,0.275-0.09,0.323-0.228c0.039-0.106,0.073-0.343,0.112-0.766l0.041-0.597c0.033-0.451,0.059-0.713,0.078-0.799
		c0.022-0.1,0.033-0.186,0.033-0.256c0-0.256-0.162-0.402-0.444-0.402c-0.095,0-0.233,0.014-0.425,0.042
		c-0.057,0.009-0.228,0.022-0.721,0.039l-1.445,0.071c-0.635,0.027-1.373,0.041-2.195,0.041c-1.363,0-2.536-0.055-3.49-0.162
		c-0.287-0.035-0.521-0.053-0.695-0.053c-0.493,0-0.566,0.243-0.566,0.389c0,0.09,0.039,0.297,0.403,0.297
		c0.575,0,0.965,0.153,1.157,0.455c0.201,0.316,0.303,0.957,0.303,1.904v8.617l-0.011,0.664c0,0.768-0.214,1.201-0.653,1.324
		l-0.385,0.11c-0.285,0.074-0.346,0.229-0.346,0.345c0,0.122,0.057,0.328,0.435,0.328c0.103,0,0.281-0.024,0.547-0.074
		c0.479-0.079,1.319-0.12,2.497-0.12c0.844,0,1.924,0.062,3.209,0.185c0.342,0.027,0.605,0.039,0.804,0.039
		c0.94,0,1.729-0.383,2.343-1.136c0.511-0.626,0.77-1.178,0.77-1.642C391.099,84.604,390.905,84.565,390.796,84.565z"/>
	<path fill="#202020" d="M354.015,84.565c-0.002,0-0.004,0-0.004,0.001c-0.112,0.01-0.213,0.085-0.312,0.233
		c-0.735,1.163-2.433,1.753-5.044,1.753c-1.015,0-1.381-0.107-1.509-0.195c-0.12-0.084-0.263-0.322-0.263-0.992v-3.758l-0.01-0.334
		c0-0.162,0.038-0.269,0.115-0.314c0.053-0.032,0.203-0.086,0.609-0.086h2.244c0.559,0,0.956,0.076,1.181,0.225
		c0.217,0.146,0.365,0.435,0.441,0.86l0.06,0.282c0.037,0.201,0.168,0.313,0.368,0.313c0.093,0,0.306-0.035,0.306-0.362
		c0-0.063-0.006-0.165-0.021-0.306c-0.04-0.4-0.061-0.811-0.061-1.219c0-0.539,0.03-1.141,0.091-1.788
		c0.008-0.106,0.012-0.184,0.012-0.233c0-0.33-0.212-0.377-0.322-0.382c-0.107,0-0.291,0.042-0.352,0.331
		c-0.105,0.533-0.205,0.73-0.27,0.805c-0.063,0.072-0.229,0.176-0.653,0.261c-0.405,0.079-0.966,0.12-1.669,0.12h-1.568
		c-0.382,0-0.441-0.059-0.443-0.061c-0.006-0.006-0.059-0.078-0.059-0.494v-4.108c0-0.407,0.078-0.562,0.146-0.618
		c0.058-0.05,0.229-0.133,0.741-0.133h1.596c1.037,0,1.756,0.051,2.139,0.15c0.361,0.094,0.593,0.273,0.709,0.547
		c0.076,0.183,0.113,0.377,0.113,0.58v0.266c0,0.357,0.184,0.412,0.311,0.412c0.001,0,0.002,0,0.002,0
		c0.159-0.009,0.274-0.09,0.326-0.229c0.022-0.067,0.059-0.22,0.109-0.764l0.04-0.597c0.041-0.547,0.066-0.736,0.079-0.799
		c0.021-0.1,0.033-0.186,0.033-0.256c0-0.256-0.162-0.402-0.445-0.402c-0.094,0-0.232,0.014-0.423,0.041
		c-0.058,0.01-0.229,0.023-0.722,0.04l-1.445,0.071c-0.635,0.027-1.373,0.041-2.195,0.041c-1.362,0-2.537-0.055-3.49-0.162
		c-0.287-0.035-0.521-0.053-0.695-0.053c-0.492,0-0.566,0.243-0.566,0.389c0,0.09,0.039,0.297,0.404,0.297
		c0.574,0,0.963,0.153,1.155,0.455c0.202,0.316,0.304,0.957,0.304,1.904v8.617l-0.01,0.664c0,0.768-0.215,1.201-0.656,1.324
		l-0.383,0.11c-0.286,0.075-0.346,0.229-0.346,0.345c0,0.122,0.057,0.328,0.434,0.328c0.104,0,0.282-0.024,0.547-0.074
		c0.48-0.079,1.322-0.12,2.498-0.12c0.844,0,1.924,0.062,3.209,0.185c0.342,0.027,0.605,0.039,0.803,0.039
		c0.94,0,1.729-0.383,2.345-1.136c0.511-0.624,0.769-1.177,0.769-1.642C354.318,84.604,354.123,84.565,354.015,84.565z"/>
	<path fill="#202020" d="M377.276,83.568c-0.001,0-0.003,0-0.004,0c-0.106,0.007-0.24,0.087-0.497,0.611
		c-0.369,0.752-1.043,1.403-2.004,1.935c-0.964,0.532-1.959,0.804-2.955,0.804c-1.704,0-3.118-0.666-4.201-1.979
		c-1.09-1.318-1.642-3.045-1.642-5.132c0-1.808,0.495-3.249,1.469-4.286c0.973-1.037,2.324-1.563,4.019-1.563
		c2.123,0,3.83,1.102,5.072,3.275c0.191,0.342,0.323,0.48,0.471,0.48c0.001,0,0.001,0,0.002,0c0.104-0.01,0.186-0.064,0.246-0.178
		l0.03-0.102c0.005-0.015,0.005-0.03,0.003-0.045l-0.355-2.699c-0.016-0.119-0.064-0.481-0.322-0.481
		c-0.059,0-0.146,0.022-0.375,0.188c-0.039,0.032-0.064,0.046-0.076,0.052l-0.137-0.047l-0.563-0.281
		c-1.213-0.65-2.559-0.98-4.002-0.98c-2.111,0-3.891,0.718-5.291,2.133c-1.398,1.416-2.107,3.217-2.107,5.354
		s0.686,3.885,2.039,5.196c1.352,1.31,3.154,1.974,5.359,1.974c1.899,0,3.664-0.51,5.242-1.515c0.322-0.21,0.494-0.413,0.525-0.616
		l0.318-1.674l0.01-0.121C377.55,83.594,377.361,83.568,377.276,83.568z"/>
	<path fill="#202020" d="M176.568,87.021c-0.542-0.058-0.911-0.214-1.094-0.466c-0.189-0.258-0.285-0.743-0.285-1.442v-9.847
		c0-0.319,0.068-0.605,0.201-0.85c0.127-0.232,0.276-0.363,0.458-0.398l0.416-0.092c0.273-0.059,0.331-0.203,0.331-0.314
		c0-0.094-0.034-0.308-0.353-0.308c-0.073,0-0.201,0.013-0.391,0.042c-0.286,0.039-0.794,0.06-1.513,0.06
		c-0.497,0-0.972-0.024-1.415-0.07c-0.339-0.036-0.563-0.052-0.704-0.052c-0.312,0-0.358,0.189-0.363,0.271
		c-0.007,0.125,0.054,0.287,0.381,0.351c0.45,0.101,0.761,0.288,0.924,0.554c0.168,0.273,0.253,0.756,0.253,1.434v3.484
		c0,0.146-0.027,0.248-0.073,0.277c-0.028,0.02-0.136,0.064-0.511,0.064h-6.008c-0.559,0-0.658-0.068-0.673-0.082
		c-0.014-0.014-0.084-0.106-0.084-0.617v-3.646c0-0.478,0.072-0.82,0.214-1.015c0.14-0.192,0.428-0.346,0.855-0.454
		c0.237-0.061,0.357-0.174,0.357-0.334c0-0.096-0.04-0.318-0.404-0.318c-0.103,0-0.244,0.014-0.441,0.042
		c-0.415,0.054-0.866,0.081-1.341,0.081c-0.705,0-1.328-0.031-1.85-0.091c-0.262-0.032-0.476-0.054-0.619-0.062
		c-0.001,0-0.027-0.002-0.028-0.002c-0.316,0-0.35,0.217-0.35,0.31c0,0.124,0.067,0.282,0.387,0.325
		c0.547,0.084,0.929,0.25,1.135,0.494s0.31,0.652,0.31,1.215v8.758c0,0.938-0.053,1.602-0.158,1.971
		c-0.098,0.342-0.271,0.538-0.531,0.598l-0.508,0.121c-0.289,0.065-0.35,0.225-0.35,0.346c0,0.089,0.035,0.297,0.363,0.297
		c0.104,0,0.412-0.024,0.651-0.045c0.251-0.023,0.464-0.033,0.637-0.033l0.667-0.023l0.856,0.01c0.625,0,1.03,0.015,1.209,0.045
		c0.25,0.031,0.418,0.047,0.512,0.047c0.153,0,0.261-0.035,0.33-0.107c0.037-0.037,0.08-0.106,0.075-0.216
		c-0.007-0.142-0.097-0.319-0.485-0.361c-0.577-0.064-0.974-0.229-1.179-0.489c-0.208-0.264-0.313-0.741-0.313-1.42v-3.736
		c0-0.385,0.072-0.486,0.102-0.511c0.035-0.028,0.168-0.094,0.655-0.094h5.999c0.453,0,0.531,0.05,0.538,0.055
		c0.005,0.006,0.056,0.077,0.056,0.479v3.741l-0.009,0.399c0,0.988-0.32,1.523-0.977,1.637c-0.282,0.043-0.43,0.154-0.438,0.33
		c-0.005,0.093,0.02,0.168,0.072,0.223c0.058,0.061,0.146,0.092,0.26,0.092h0.021c0.048,0,0.241-0.015,0.713-0.053
		c0.2-0.02,0.361-0.029,0.481-0.029l0.76-0.021l0.754,0.011c0.507,0,0.844,0.014,1.001,0.039c0.468,0.075,0.736,0.086,0.866-0.057
		c0.058-0.063,0.082-0.146,0.074-0.243C176.982,87.155,176.84,87.055,176.568,87.021z M172.321,87.563L172.321,87.563v0.004V87.563z
		"/>
	<path fill="#202020" d="M207.238,86.971c-0.62-0.111-1.033-0.262-1.227-0.447c-0.197-0.186-0.456-0.688-0.77-1.496l-4.601-11.765
		c-0.092-0.243-0.219-0.366-0.377-0.366c-0.233,0-0.355,0.279-0.394,0.369l-5.234,11.629l-0.294,0.668
		c-0.145,0.303-0.333,0.6-0.557,0.881c-0.27,0.337-0.419,0.436-0.496,0.459l-0.377,0.111c-0.162,0.049-0.25,0.164-0.25,0.323
		c0,0.089,0.037,0.297,0.383,0.297c0.015,0,0.061,0,0.578-0.057c0.108-0.009,0.259-0.015,0.448-0.015
		c0.424,0,0.802,0.008,1.122,0.023l0.976,0.058c0.158,0.007,0.275,0.011,0.352,0.011c0.157,0,0.265-0.033,0.33-0.102
		c0.045-0.049,0.067-0.111,0.063-0.182c-0.007-0.121-0.083-0.275-0.401-0.339c-0.448-0.098-0.748-0.212-0.892-0.341
		c-0.136-0.121-0.204-0.328-0.204-0.615c0-0.316,0.149-0.815,0.443-1.485l0.667-1.499c0.256-0.58,0.392-0.732,0.45-0.771
		c0.058-0.038,0.249-0.104,0.877-0.104h3.686c0.508,0,0.614,0.057,0.629,0.066c0.022,0.016,0.111,0.106,0.298,0.598l0.509,1.348
		c0.407,1.058,0.613,1.769,0.613,2.113c0,0.344-0.134,0.531-0.424,0.589l-0.313,0.07c-0.283,0.056-0.342,0.202-0.342,0.315
		c0,0.096,0.037,0.317,0.374,0.317c0.075,0,0.185-0.013,0.333-0.042c0.231-0.039,0.821-0.06,1.753-0.06
		c0.896,0,1.525,0.017,1.876,0.051c0.201,0.014,0.333,0.021,0.396,0.021c0.328,0,0.387-0.17,0.394-0.272
		C207.639,87.202,207.575,87.035,207.238,86.971z M201.652,80.887c0,0.12-0.218,0.146-0.4,0.146h-3.071l-0.279-0.011
		c-0.36,0-0.36-0.117-0.36-0.156c0-0.015,0.009-0.085,0.123-0.331l1.986-4.41c0.033-0.073,0.057-0.108,0.07-0.124
		c0.026,0.015,0.084,0.068,0.157,0.262l1.677,4.236l0.051,0.186C201.644,80.809,201.652,80.862,201.652,80.887z"/>
	<path fill="#202020" d="M249.984,87.021c-0.543-0.058-0.911-0.214-1.094-0.465c-0.189-0.26-0.285-0.745-0.285-1.443v-9.847
		c0-0.32,0.066-0.605,0.199-0.849c0.129-0.233,0.277-0.364,0.459-0.399l0.416-0.092c0.273-0.059,0.332-0.204,0.332-0.314
		c0-0.193-0.133-0.308-0.354-0.308c-0.073,0-0.202,0.013-0.392,0.042c-0.285,0.039-0.794,0.06-1.512,0.06
		c-0.496,0-0.973-0.024-1.416-0.07c-0.338-0.036-0.561-0.052-0.703-0.052c-0.313,0-0.357,0.189-0.363,0.271
		c-0.006,0.125,0.056,0.287,0.381,0.351c0.45,0.101,0.761,0.288,0.924,0.554c0.168,0.273,0.254,0.756,0.254,1.434v3.484
		c0,0.2-0.046,0.26-0.074,0.277c-0.027,0.02-0.135,0.064-0.509,0.064h-6.009c-0.559,0-0.66-0.068-0.673-0.082
		c-0.015-0.014-0.084-0.105-0.084-0.617v-3.646c0-0.479,0.071-0.82,0.214-1.015c0.14-0.192,0.428-0.346,0.855-0.454
		c0.236-0.061,0.357-0.172,0.357-0.334c0-0.096-0.041-0.318-0.405-0.318c-0.103,0-0.243,0.014-0.441,0.042
		c-0.415,0.054-0.866,0.081-1.341,0.081c-0.705,0-1.328-0.031-1.85-0.091c-0.263-0.032-0.477-0.054-0.62-0.062
		c-0.001,0-0.027-0.002-0.028-0.002c-0.315,0-0.35,0.217-0.35,0.31c0,0.124,0.067,0.282,0.388,0.325
		c0.547,0.084,0.929,0.25,1.136,0.494c0.205,0.244,0.31,0.652,0.31,1.215v8.758c0,0.938-0.054,1.602-0.159,1.971
		c-0.098,0.342-0.271,0.538-0.531,0.598l-0.507,0.121c-0.29,0.065-0.351,0.225-0.351,0.346c0,0.089,0.034,0.297,0.363,0.297
		c0.104,0,0.411-0.024,0.65-0.045c0.252-0.023,0.464-0.033,0.637-0.033l0.667-0.023l0.856,0.01c0.623,0,1.029,0.015,1.209,0.045
		c0.252,0.031,0.418,0.047,0.513,0.047c0.151,0,0.26-0.035,0.328-0.107c0.036-0.037,0.08-0.106,0.075-0.216
		c-0.006-0.142-0.096-0.319-0.484-0.361c-0.578-0.064-0.974-0.229-1.178-0.489c-0.209-0.263-0.313-0.74-0.313-1.42v-3.736
		c0-0.385,0.071-0.486,0.103-0.511c0.033-0.028,0.167-0.094,0.654-0.094h5.998c0.453,0,0.531,0.05,0.537,0.054
		c0.006,0.007,0.057,0.078,0.057,0.48v3.741l-0.01,0.399c0,0.988-0.32,1.523-0.978,1.637c-0.282,0.043-0.429,0.154-0.438,0.331
		c-0.005,0.092,0.02,0.167,0.071,0.222c0.059,0.061,0.146,0.092,0.262,0.092h0.02c0.048,0,0.233-0.014,0.713-0.053
		c0.199-0.02,0.359-0.029,0.48-0.029l0.76-0.021l0.755,0.011c0.509,0,0.845,0.014,1.001,0.039c0.468,0.075,0.734,0.087,0.867-0.057
		c0.057-0.062,0.082-0.146,0.074-0.245C250.396,87.155,250.255,87.055,249.984,87.021z M245.738,87.563L245.738,87.563v0.004V87.563
		z"/>
	<path fill="#202020" d="M436.451,84.565c-0.002,0-0.003,0-0.004,0.001c-0.109,0.01-0.215,0.088-0.313,0.233
		c-0.734,1.163-2.431,1.753-5.043,1.753c-1.015,0-1.381-0.107-1.508-0.195c-0.121-0.084-0.264-0.322-0.264-0.992v-3.758
		l-0.011-0.334c0-0.162,0.039-0.268,0.114-0.314c0.066-0.039,0.227-0.086,0.61-0.086h2.246c0.558,0,0.954,0.076,1.179,0.225
		c0.218,0.146,0.367,0.435,0.443,0.86l0.06,0.282c0.036,0.201,0.167,0.313,0.366,0.313c0.094,0,0.307-0.035,0.307-0.362
		c0-0.063-0.006-0.163-0.02-0.306c-0.041-0.4-0.061-0.811-0.061-1.219c0-0.548,0.029-1.149,0.09-1.808
		c0.008-0.097,0.012-0.167,0.012-0.214c0-0.33-0.211-0.377-0.322-0.382c-0.106,0-0.292,0.042-0.353,0.331
		c-0.103,0.53-0.202,0.73-0.269,0.805c-0.063,0.072-0.229,0.176-0.654,0.261c-0.403,0.079-0.965,0.12-1.668,0.12h-1.568
		c-0.381,0-0.441-0.059-0.443-0.061c-0.006-0.007-0.059-0.077-0.059-0.494v-4.108c0-0.407,0.079-0.562,0.146-0.618
		c0.057-0.05,0.229-0.133,0.741-0.133h1.595c1.037,0,1.756,0.051,2.139,0.15c0.361,0.094,0.594,0.273,0.71,0.547
		c0.075,0.183,0.113,0.377,0.113,0.58v0.266c0,0.357,0.183,0.412,0.31,0.412h0.002c0.16-0.009,0.275-0.09,0.326-0.229
		c0.022-0.067,0.059-0.22,0.109-0.764l0.041-0.597c0.033-0.451,0.059-0.711,0.078-0.8c0.022-0.105,0.033-0.189,0.033-0.255
		c0-0.256-0.162-0.402-0.445-0.402c-0.094,0-0.236,0.014-0.424,0.042c-0.057,0.009-0.229,0.022-0.721,0.039l-1.445,0.071
		c-0.635,0.027-1.373,0.041-2.195,0.041c-1.363,0-2.536-0.055-3.49-0.162c-0.287-0.035-0.521-0.053-0.695-0.053
		c-0.492,0-0.566,0.243-0.566,0.389c0,0.09,0.039,0.297,0.404,0.297c0.575,0,0.964,0.153,1.156,0.455
		c0.201,0.316,0.303,0.957,0.303,1.904v8.617l-0.011,0.664c0,0.768-0.214,1.201-0.654,1.324l-0.384,0.11
		c-0.285,0.074-0.346,0.229-0.346,0.345c0,0.122,0.057,0.328,0.434,0.328c0.103,0,0.281-0.024,0.548-0.074
		c0.48-0.079,1.321-0.12,2.497-0.12c0.844,0,1.924,0.062,3.209,0.185c0.342,0.027,0.605,0.039,0.803,0.039
		c0.941,0,1.73-0.383,2.344-1.136c0.511-0.624,0.77-1.176,0.77-1.642C436.753,84.604,436.559,84.565,436.451,84.565z"/>
	<path fill="#202020" d="M423.041,74.365c0-0.568-0.078-0.723-0.147-0.795s-0.218-0.154-0.757-0.154h-10.965
		c-0.271,0-0.447,0.063-0.541,0.191c-0.088,0.119-0.128,0.335-0.128,0.678c0,0.311-0.052,0.709-0.15,1.185
		c-0.084,0.391-0.124,0.654-0.124,0.806c0,0.33,0.199,0.377,0.301,0.382c0.262,0,0.344-0.354,0.371-0.472
		c0.131-0.586,0.313-0.986,0.541-1.189c0.228-0.203,0.605-0.305,1.125-0.305h2.699c0.318,0,0.4,0.056,0.418,0.072
		c0.018,0.016,0.073,0.094,0.073,0.395l0.011,10.369c0,0.543-0.084,0.918-0.25,1.118c-0.164,0.198-0.497,0.331-0.988,0.396
		c-0.287,0.035-0.432,0.137-0.432,0.307c0,0.098,0.041,0.328,0.416,0.328c0.068,0,0.277-0.02,0.693-0.063
		c0.191-0.02,0.432-0.03,0.715-0.03l0.793-0.011l0.746,0.011c0.475,0,0.778,0.011,0.901,0.028c0.267,0.044,0.431,0.064,0.517,0.064
		c0.356,0,0.395-0.23,0.395-0.33c0-0.172-0.15-0.285-0.446-0.334c-0.806-0.142-1.212-0.572-1.244-1.314l-0.011-10.391
		c0-0.393,0.063-0.498,0.088-0.525s0.124-0.09,0.486-0.09h2.861c0.544,0,0.909,0.066,1.086,0.198
		c0.174,0.128,0.303,0.423,0.386,0.874c0.063,0.334,0.218,0.404,0.358,0.404c0.002,0,0.002,0,0.003,0
		c0.098-0.01,0.325-0.069,0.313-0.439c-0.007-0.105-0.027-0.271-0.063-0.51C423.056,75.043,423.041,74.756,423.041,74.365z"/>
	<path fill="#202020" d="M190.575,84.565c-0.001,0-0.002,0-0.003,0.001c-0.111,0.01-0.213,0.085-0.312,0.233
		c-0.735,1.163-2.432,1.753-5.043,1.753c-1.015,0-1.381-0.107-1.51-0.195c-0.12-0.084-0.263-0.322-0.263-0.992v-3.758l-0.009-0.334
		c0-0.162,0.039-0.269,0.115-0.314c0.053-0.032,0.204-0.086,0.609-0.086h2.246c0.558,0,0.955,0.076,1.179,0.225
		c0.217,0.146,0.365,0.435,0.442,0.86l0.06,0.282c0.038,0.201,0.168,0.313,0.368,0.313c0.092,0,0.306-0.035,0.306-0.362
		c0-0.063-0.006-0.165-0.02-0.306c-0.04-0.398-0.061-0.808-0.061-1.219c0-0.543,0.03-1.145,0.089-1.789
		c0.009-0.105,0.012-0.183,0.012-0.232c0-0.33-0.21-0.377-0.323-0.382c-0.105,0-0.291,0.042-0.35,0.331
		c-0.105,0.533-0.205,0.732-0.27,0.805c-0.063,0.072-0.228,0.174-0.653,0.261c-0.405,0.079-0.967,0.12-1.669,0.12h-1.569
		c-0.38,0-0.44-0.057-0.443-0.061c-0.006-0.007-0.059-0.078-0.059-0.494v-4.108c0-0.407,0.08-0.562,0.146-0.618
		c0.057-0.05,0.229-0.133,0.743-0.133h1.596c1.037,0,1.756,0.051,2.138,0.15c0.361,0.093,0.593,0.273,0.708,0.547
		c0.076,0.183,0.114,0.377,0.114,0.58v0.266c0,0.357,0.183,0.412,0.311,0.412c0,0,0.001,0,0.002,0
		c0.16-0.009,0.275-0.09,0.324-0.229c0.024-0.066,0.061-0.219,0.109-0.765l0.041-0.597c0.041-0.547,0.066-0.736,0.08-0.799
		c0.022-0.104,0.033-0.188,0.033-0.256c0-0.256-0.162-0.402-0.445-0.402c-0.094,0-0.232,0.014-0.423,0.041
		c-0.058,0.01-0.23,0.023-0.723,0.04l-1.445,0.071c-0.634,0.027-1.372,0.041-2.194,0.041c-1.362,0-2.537-0.055-3.491-0.162
		c-0.288-0.035-0.521-0.053-0.695-0.053c-0.493,0-0.567,0.243-0.567,0.389c0,0.09,0.04,0.297,0.404,0.297
		c0.575,0,0.964,0.153,1.155,0.455c0.201,0.316,0.304,0.957,0.304,1.904v8.617l-0.009,0.664c0,0.768-0.214,1.201-0.655,1.324
		l-0.384,0.11c-0.286,0.074-0.346,0.229-0.346,0.345c0,0.122,0.056,0.328,0.434,0.328c0.103,0,0.282-0.024,0.547-0.074
		c0.482-0.079,1.322-0.12,2.498-0.12c0.845,0,1.924,0.062,3.209,0.185c0.343,0.027,0.605,0.039,0.803,0.039
		c0.94,0,1.729-0.383,2.346-1.136c0.509-0.624,0.767-1.177,0.767-1.642C190.877,84.604,190.684,84.565,190.575,84.565z"/>
	<path fill="#202020" d="M407.266,73.293c-0.123,0-0.293,0.021-0.517,0.063c-0.244,0.039-0.578,0.061-0.99,0.061
		c-0.781,0-1.41-0.025-1.874-0.073c-0.199-0.02-0.347-0.029-0.438-0.029c-0.364,0-0.403,0.208-0.403,0.298
		c0,0.109,0.05,0.3,0.386,0.355c0.676,0.112,1.145,0.283,1.396,0.509c0.246,0.222,0.404,0.612,0.469,1.152l0.121,2.335l-0.01,6.411
		c-0.002,0.04-0.008,0.064-0.013,0.077c-0.028-0.021-0.087-0.073-0.194-0.195l-9.367-10.609c-0.191-0.221-0.391-0.333-0.592-0.333
		c-0.089,0-0.216,0.003-0.383,0.011l-0.153,0.01l-1.093-0.029c-0.08-0.008-0.139-0.012-0.174-0.012
		c-0.208,0-0.332,0.111-0.332,0.299c0,0.104,0.048,0.289,0.369,0.336c0.676,0.09,1.179,0.451,1.539,1.102
		c0.361,0.655,0.546,1.572,0.546,2.723v6.931c0,0.71-0.096,1.228-0.284,1.538c-0.186,0.307-0.556,0.557-1.098,0.744
		c-0.249,0.084-0.369,0.205-0.358,0.363c0.011,0.106,0.078,0.285,0.393,0.285c0.077,0,0.198-0.012,0.392-0.037
		c0.229-0.03,0.479-0.046,0.743-0.046l0.479-0.019l1.037,0.051c0.635,0.033,0.825,0.051,0.88,0.061
		c0.121,0.014,0.226,0.021,0.317,0.021c0.203,0,0.323-0.115,0.323-0.309c0-0.143-0.075-0.323-0.429-0.366
		c-0.512-0.077-0.855-0.195-1.021-0.349c-0.163-0.15-0.268-0.439-0.312-0.852l-0.03-0.718l0.01-7.343c0-0.24,0.045-0.35,0.085-0.35
		c0.025,0,0.046,0.01,0.062,0.025l8.684,9.927l0.23,0.271c0.073,0.073,0.176,0.115,0.307,0.123c0.001,0,0.021,0,0.022,0
		c0.197,0,0.331-0.115,0.373-0.326c0.036-0.176,0.054-0.641,0.054-1.422v-8.529l0.02-0.676v-1.1c0-0.63,0.063-1.061,0.186-1.281
		c0.116-0.209,0.369-0.362,0.754-0.457c0.246-0.07,0.29-0.205,0.282-0.309C407.65,73.512,407.594,73.293,407.266,73.293z
		 M405.99,87.592C405.991,87.592,405.991,87.592,405.99,87.592l0.001,0.005L405.99,87.592z"/>
	<path fill="#202020" d="M220.51,84.678c-0.141,0-0.266,0.109-0.381,0.334c-0.243,0.467-0.824,0.851-1.727,1.143
		c-0.919,0.297-2.021,0.447-3.275,0.447c-1.089,0-1.379-0.121-1.455-0.193c-0.075-0.072-0.2-0.344-0.2-1.373l-0.01-9.217
		c0-1.02,0.272-1.582,0.831-1.719l0.358-0.082c0.312-0.075,0.378-0.256,0.378-0.395c0-0.078-0.035-0.258-0.352-0.258
		c-0.034,0-0.182,0.006-0.444,0.02c-0.504,0.034-1.073,0.051-1.69,0.051c-0.57,0-1.09-0.02-1.544-0.061
		c-0.273-0.027-0.492-0.041-0.651-0.041c-0.396,0-0.455,0.211-0.455,0.338c0,0.089,0.043,0.246,0.333,0.305l0.457,0.092
		c0.682,0.14,1.013,0.621,1.013,1.475v9.114l-0.01,0.472c0,0.63-0.077,1.08-0.227,1.338c-0.146,0.25-0.444,0.444-0.884,0.578
		c-0.294,0.084-0.356,0.232-0.356,0.343c0,0.067,0.024,0.288,0.342,0.288c0.001,0,0.026,0,0.028,0
		c0.148-0.009,0.343-0.029,0.58-0.063c0.556-0.081,1.257-0.122,2.084-0.122c0.715,0,1.401,0.024,2.041,0.071l1.101,0.082
		c0.299,0.021,0.548,0.031,0.762,0.031c1.339,0,2.325-0.387,2.929-1.148c0.427-0.551,0.658-1.066,0.686-1.532
		c0.006-0.105-0.019-0.188-0.071-0.243C220.668,84.719,220.609,84.678,220.51,84.678z M210.561,87.563L210.561,87.563v0.004V87.563z
		"/>
	<path fill="#202020" d="M233.234,74.365c0-0.568-0.079-0.725-0.147-0.795c-0.104-0.107-0.337-0.154-0.756-0.154h-10.966
		c-0.271,0-0.447,0.063-0.541,0.191c-0.087,0.119-0.128,0.335-0.128,0.678c0,0.309-0.05,0.707-0.15,1.185
		c-0.083,0.392-0.124,0.654-0.124,0.806c0,0.33,0.2,0.377,0.301,0.382c0.263,0,0.344-0.354,0.372-0.472
		c0.13-0.586,0.313-0.986,0.542-1.189c0.226-0.203,0.604-0.305,1.124-0.305h2.699c0.318,0,0.401,0.056,0.418,0.072
		c0.017,0.016,0.074,0.094,0.074,0.395l0.011,10.369c0,0.542-0.084,0.918-0.25,1.118c-0.164,0.198-0.497,0.331-0.988,0.396
		c-0.286,0.035-0.432,0.137-0.432,0.307c0,0.098,0.041,0.328,0.415,0.328c0.069,0,0.277-0.02,0.695-0.063
		c0.192-0.02,0.433-0.03,0.715-0.03l0.792-0.011l0.747,0.011c0.476,0,0.778,0.011,0.901,0.028c0.266,0.044,0.431,0.064,0.517,0.064
		c0.356,0,0.395-0.23,0.395-0.33c0-0.172-0.149-0.285-0.446-0.334c-0.805-0.142-1.212-0.572-1.244-1.314l-0.01-10.391
		c0-0.393,0.061-0.498,0.088-0.527c0.024-0.025,0.122-0.088,0.485-0.088h2.861c0.544,0,0.909,0.066,1.086,0.198
		c0.173,0.128,0.304,0.423,0.386,0.874c0.063,0.334,0.219,0.404,0.359,0.404h0.002c0.121-0.012,0.322-0.083,0.313-0.439
		c-0.007-0.1-0.025-0.256-0.063-0.51C233.25,75.045,233.234,74.758,233.234,74.365z"/>
</g>
<path fill="#F77F00" d="M129.481,30.737h-16.219v56.737H88.963V0.392h65.498c-1.359,1.359-0.863,3.397-2.711,6.049
	c-2.413,3.209-4.771,1.71-6.727,4.067c-1.803,2.181-1.016,4.459-2.713,6.721c-2.408,3.216-6.107,2.037-8.76,5.43
	C131.394,25.371,131.516,28.025,129.481,30.737"/>
<path fill="#F77F00" d="M54.693,0.562c-1.354,1.356-0.981,3.519-2.829,6.164c-2.403,3.208-4.761,1.716-6.713,4.069
	c-1.802,2.176-1.019,4.456-2.709,6.716c-2.409,3.212-6.04,2.028-8.747,5.421c-2.16,2.708-2.037,5.358-4.066,8.068h31.724v28.334
	H35.049c-2.175,0-3.928,0.237-5.42-1.354c-1.143-1.222-1.357-2.394-1.354-4.065l0.098-53.353H0.081L0,62.045
	c-0.009,7.164,4.679,14.166,7.395,16.819c3.383,3.388,10.336,8.808,18.234,8.808h37.017l22.299-25.627l0.136-61.483H54.693"/>
</svg>
