<?xml version="1.0" encoding="utf-8"?>
<!-- Generator: Adobe Illustrator 16.0.0, SVG Export Plug-In . SVG Version: 6.00 Build 0)  -->
<!DOCTYPE svg PUBLIC "-//W3C//DTD SVG 1.1//EN" "http://www.w3.org/Graphics/SVG/1.1/DTD/svg11.dtd">
<svg version="1.1" id="Layer_1" xmlns="http://www.w3.org/2000/svg" xmlns:xlink="http://www.w3.org/1999/xlink" x="0px" y="0px"
	 width="527.344px" height="59.851px" viewBox="-94.672 -9.364 527.344 59.851"
	 enable-background="new -94.672 -9.364 527.344 59.851" xml:space="preserve">
<g id="Layer_1_1_" display="none">
	<rect display="inline" fill="#215138" width="338.5" height="40.939"/>
</g>
<g id="Layer_3">
	<g>
		<path fill="#F89728" d="M424.738,0.481h-5.15V18.5h-7.716V-9.154h20.8c-0.432,0.429-0.275,1.076-0.861,1.919
			c-0.765,1.019-1.514,0.543-2.135,1.292c-0.572,0.69-0.323,1.417-0.861,2.134c-0.765,1.02-1.939,0.645-2.782,1.725
			C425.347-1.223,425.386-0.38,424.738,0.481"/>
		<path fill="#F89728" d="M400.989-9.103c-0.432,0.43-0.313,1.119-0.897,1.96c-0.764,1.016-1.515,0.542-2.133,1.289
			c-0.571,0.691-0.323,1.416-0.861,2.133c-0.765,1.02-1.917,0.645-2.778,1.722c-0.686,0.86-0.647,1.701-1.289,2.562h10.071v8.998
			h-8.351c-0.689,0-1.249,0.075-1.721-0.43c-0.363-0.386-0.431-0.758-0.431-1.289l0.033-16.945h-8.988l-0.026,19.525
			c-0.003,2.275,1.485,4.499,2.349,5.34c1.077,1.076,3.283,2.798,5.789,2.798h11.757l7.081-8.14l0.043-19.525h-9.647V-9.103z"/>
		<path fill="#FFFFFF" d="M152.075,2.469c-3.207,0-4.151,4.338-4.151,7.129c0,1.822,0.421,3.807,2.376,3.807
			c3.353,0,4.297-4.535,4.297-7.384C154.597,3.991,154.118,2.469,152.075,2.469 M157.079,6.705c0,3.803-2.495,7.923-6.779,7.923
			c-3.167,0-4.859-2.313-4.859-5.29c0-3.615,2.453-8.094,6.665-8.094C155.391,1.242,157.079,3.649,157.079,6.705"/>
		<path fill="#FFFFFF" d="M164.815,5.047c0.452,0,0.452-0.226,0.452-0.567c0-0.406,0-0.587-0.452-0.587h-1.518
			c-0.181,0-0.315-0.178-0.315-0.36c0-0.633,0.7-4.729,2.037-4.729c1.084,0,1.518,1.652,1.944,1.652c0.477,0,0.545-1.29,0.545-1.673
			c0-0.386,0.135-0.997-1.902-0.997c-2.106,0-3.937,1.946-4.616,4.095c-0.497,1.561-0.338,2.012-0.631,2.012h-1.698
			c-0.45,0-0.45,0.181-0.45,0.587c0,0.342,0,0.567,0.45,0.567h1.494c0.183,0,0.317,0.045,0.295,0.271l-1.086,9.209
			c-0.228,1.764-0.543,2.012-0.864,2.012c-0.835,0-0.881-1.605-1.513-1.605c-0.497,0-0.678,1.313-0.678,1.72
			c0,0.632,0.385,1.064,1.356,1.064c1.086,0,3.825-1.221,4.345-5.407l0.862-6.811c0.021-0.228,0.021-0.452,0.224-0.452h1.72V5.047z"
			/>
		<path fill="#FFFFFF" d="M-48.773-5.891c0-2.734,2.542-1.671,2.542-2.734c0-0.455-1.025-0.378-1.213-0.378
			c-1.177,0-2.392,0.151-3.606,0.151c-1.025,0-1.975-0.151-2.962-0.151c-0.189,0-0.834,0.113-0.834,0.378
			c0,1.213,3.075,0.303,3.075,2.544V6.71c0,5.848,1.897,11.426,11.883,11.426c11.047,0,10.592-9.376,10.592-11.237V-4.866
			c0-3.494,2.24-2.656,2.24-3.72c0-0.229-0.305-0.417-0.495-0.417c-0.683,0-1.367,0.151-2.087,0.151
			c-1.48,0-2.962-0.151-4.442-0.151c-0.115,0-0.38,0.188-0.38,0.378c0,1.442,3.53-0.152,3.53,3.722V7.396
			c0,4.48-1.631,9.187-8.767,9.187c-5.126,0-9.074-2.772-9.074-8.847V-5.891z"/>
		<path fill="#FFFFFF" d="M-22,13.052c0,4.739-2.976,3.248-2.976,4.431c0,0.171,0.035,0.374,0.44,0.374
			c0.237,0,1.995-0.137,3.18-0.137c1.658,0,2.604,0.137,3.416,0.137c0.339,0,0.373-0.272,0.373-0.441
			c0-0.914-2.978,0.271-2.978-2.773V0.808c0-0.678,0.102-0.778,0.237-0.778c0.237,0,0.643,0.575,0.71,0.642l14.547,16.373
			c0.709,0.778,1.048,0.948,1.285,0.948c0.27,0,0.304-0.474,0.304-1.455V-3.049c0-2.47,1.995-1.86,1.995-2.74
			c0-0.203-0.135-0.303-0.337-0.303c-0.813,0-2.268,0.135-3.417,0.135c-1.083,0-2.064-0.135-3.079-0.135
			c-0.204,0-0.372,0.1-0.372,0.337c0,1.118,3.754-0.168,3.754,4.264v14.14c0,0.27-0.035,0.373-0.102,0.373s-0.202-0.135-0.405-0.373
			L-21.56-5.313c-0.203-0.237-0.507-0.778-0.879-0.778c-0.507,0-1.048,0.135-1.556,0.135c-0.541,0-1.048-0.135-1.589-0.135
			c-0.169,0-0.509,0.135-0.509,0.337c0,1.253,4.093-0.709,4.093,6.328V13.052z"/>
		<path fill="#FFFFFF" d="M4.318,14.135c0,3.348-2.638,2.232-2.638,3.214c0,0.337,0.101,0.507,0.709,0.507
			c0.474,0,1.184-0.137,3.248-0.137c1.455,0,2.908,0.137,3.686,0.137C9.9,17.857,10,17.754,10,17.518c0-1.016-3.01-0.237-3.01-2.536
			V-3.184c0-2.538,2.436-1.76,2.436-2.573c0-0.27-0.102-0.337-0.643-0.337c-1.047,0-2.097,0.135-3.145,0.135
			c-1.252,0-2.47-0.135-3.722-0.135c-0.27,0-0.338,0.068-0.338,0.371c0,0.746,2.706,0.067,2.74,2.538V14.135z"/>
		<path fill="#FFFFFF" d="M21.365,16.268c0.304,0.708,0.709,2.128,1.25,2.128c0.507,0,0.744-1.116,1.118-1.962l8.422-19.922
			c0.948-2.267,1.896-1.419,1.896-2.167c0-0.303-0.205-0.438-0.578-0.438c-0.473,0-0.981,0.135-2.606,0.135
			c-0.744,0-1.486-0.135-2.23-0.135c-0.337,0-0.509,0.1-0.509,0.438c0,0.778,2.167,0.136,2.167,1.692
			c0.133,0.711-0.273,1.794-0.473,2.3l-5.889,14.511c-0.168,0.407-0.268,0.948-0.607,0.948c-0.373,0-0.609-0.776-1.354-2.57
			L16.054-2.711c-0.136-0.301-0.306-0.844-0.306-1.318c0-1.216,1.421-1.252,1.387-1.727c0-0.202-0.271-0.337-0.474-0.337
			c-0.473,0-1.758,0.135-2.672,0.135c-1.015,0-2.064-0.135-3.112-0.135c-0.304,0-0.474,0.168-0.474,0.475
			c0,0.743,1.759,0.099,2.605,2.13L21.365,16.268z"/>
		<path fill="#FFFFFF" d="M39.8-2.542c0-2.267-0.067-2.129,3.18-2.129c1.352,0,4.871-0.205,5.751,0.948
			c0.54,0.776,0,2.401,0.81,2.401c0.205,0,0.677-0.271,0.677-4.024c0-0.409-0.066-0.746-0.339-0.746
			c-1.047,0-4.16,0.135-4.836,0.135c-1.421,0-3.179-0.135-9.571-0.135c-0.981,0-1.185,0.135-1.185,0.407
			c0,0.405,0.746,0.474,1.014,0.541c1.827,0.27,1.827,1.895,1.827,3.416v15.425c0,1.589-0.069,2.537-0.948,2.943
			c-1.082,0.542-1.421,0.474-1.487,0.88c0,0.272,0.201,0.339,0.506,0.339c1.354,0,2.775-0.103,4.128-0.137
			c2.571-0.066,5.14,0.137,7.711,0.137c1.489,0,2.233,0.067,3.316-1.151c0.812-0.878,1.691-2.063,1.691-3.282
			c0-0.067-0.033-0.405-0.27-0.405c-0.44,0-1.59,3.482-9.405,3.482c-2.841,0-2.569-0.81-2.569-2.806V7.474
			c0-0.508-0.101-1.082,0.607-1.082h5.007c2.841,0,1.692,2.976,2.739,2.976c0.238,0,0.373-0.135,0.373-0.439
			c0-0.913-0.069-1.792-0.069-2.673c0-1.08,0.069-2.232,0.069-3.416c0-0.271-0.102-0.642-0.373-0.642
			c-0.81,0,0.102,2.706-3.416,2.706h-3.653c-1.352,0-1.284,0-1.284-1.149V-2.542L39.8-2.542z"/>
		<path fill="#FFFFFF" d="M58.503-3.725c0-1.319,0.713-1.253,1.929-1.253c3.314,0,6.461,1.388,6.461,5.514
			c0,4.195-3.249,4.803-4.703,4.803c-1.59,0-3.688,0.171-3.688-0.473V-3.725z M65.166,5.611c2.369-0.948,4.265-3.214,4.265-5.853
			c0-6.528-7.476-5.853-8.018-5.853c-1.757,0-3.687,0.135-5.648,0.135c-1.725,0-1.556-0.135-2.165-0.135
			c-0.408,0-0.676,0.204-0.676,0.407c0,1.149,2.91-0.238,2.91,3.01V14.54c0,2.571-2.471,2.097-2.471,2.941
			c0,0.204,0.135,0.374,0.337,0.374c1.288,0,2.573-0.137,3.855-0.137c2.808,0,3.586,0.137,3.891,0.137
			c0.272,0,0.575,0.067,0.575-0.272c0-1.149-3.518-0.102-3.518-3.011V7.437c0-0.341-0.202-0.948,0.879-0.948
			c3.789,0,3.282-0.102,4.501,1.792l3.753,5.919c1.285,1.929,2.603,3.653,5.074,3.653c0.304,0,2.199,0,2.199-0.406
			c0-0.813-1.658,0.438-4.095-3.282L65.166,5.611z"/>
		<path fill="#FFFFFF" d="M75.461,16.232c0.135,0.608,3.213,1.861,5.715,1.861c7.68,0,9.675-4.263,9.675-7.102
			c0-9.336-13.732-5.616-13.732-11.977c0-3.111,2.841-4.397,5.514-4.397c2.976,0,5.447,1.488,6.46,4.397
			c0.101,0.305,0.337,1.014,0.711,1.014c0.337,0,0.403-0.235,0.37-0.507l-0.507-4.601c-0.033-0.372-0.201-0.474-0.405-0.474
			c-0.337,0-0.406,0.372-0.711,0.372c-0.472,0-1.588-1.218-5.682-1.218c-3.89,0-7.508,2.064-7.508,6.36
			c0,8.829,13.732,5.174,13.732,11.704c0,3.552-3.146,5.345-6.358,5.345c-4.667,0-6.698-3.518-7.105-5.075
			c-0.168-0.709-0.168-1.116-0.642-1.116c-0.339,0-0.505,0.373-0.372,1.048L75.461,16.232z"/>
		<path fill="#FFFFFF" d="M96.126,14.135c0,3.348-2.637,2.232-2.637,3.214c0,0.337,0.101,0.507,0.711,0.507
			c0.472,0,1.183-0.137,3.244-0.137c1.457,0,2.91,0.137,3.688,0.137c0.576,0,0.678-0.103,0.678-0.339
			c0-1.016-3.012-0.237-3.012-2.536V-3.184c0-2.538,2.434-1.76,2.434-2.573c0-0.27-0.101-0.337-0.639-0.337
			c-1.051,0-2.101,0.135-3.15,0.135c-1.25,0-2.467-0.135-3.72-0.135c-0.268,0-0.337,0.068-0.337,0.371
			c0,0.746,2.706,0.067,2.739,2.538V14.135z"/>
		<path fill="#FFFFFF" d="M112.834,14.914c0,2.029-2.67,1.69-2.67,2.501c0,0.339,0.101,0.441,0.407,0.441
			c0.203,0,0.842-0.137,4.631-0.137c0.981,0,1.929,0.137,2.742,0.137c0.337,0,0.303-0.305,0.303-0.407
			c0-1.049-2.74,0.067-2.74-2.775V-2.574c0-1.792-0.167-1.658,1.353-1.658h4.837c3.451,0,1.625,2.57,2.874,2.57
			c0.442,0,0.406-0.406,0.374-0.744l-0.169-2.707c-0.033-0.777-0.204-0.981-0.981-0.981c-0.677,0-3.789,0.135-9.91,0.135
			c-4.363,0-6.969-0.135-9.606-0.135c-0.61,0-0.577,0.914-0.61,1.318l-0.371,3.283c0,0.169,0.135,0.406,0.338,0.406
			c0.439,0,0.472-0.44,0.574-0.778c0.611-1.859,0.677-2.367,2.775-2.367h5.513c0.475,0.033,0.337,1.318,0.337,1.556V14.914
			L112.834,14.914z"/>
		<path fill="#FFFFFF" d="M133.715,5.069c0.272,0.409,0.78,1.084,0.78,1.727v8.188c0,2.401-2.604,1.521-2.604,2.469
			c0,0.37,0.199,0.407,0.505,0.407c0.304,0,1.523-0.137,3.043-0.137c1.254,0,3.215,0.137,3.722,0.137c0.474,0,0.78-0.035,0.78-0.339
			c0-1.048-2.775-0.102-2.775-3.043V6.188c0-0.507,0.271-0.677,0.813-1.524l4.734-7.373c0.541-0.845,0.981-1.793,1.896-2.332
			c0.235-0.136,0.809-0.271,0.809-0.643c0-0.17-0.167-0.407-0.37-0.407c-0.981,0-1.962,0.135-2.943,0.135
			c-0.813,0-1.659-0.135-2.47-0.135c-0.374,0-0.711,0.067-0.711,0.506c0,0.813,2.538,0.102,2.538,1.759
			c0,0.914-0.474,1.488-0.71,1.861l-3.485,5.649c-0.269,0.441-0.472,0.678-0.643,0.678c-0.204,0-0.406-0.204-0.676-0.609
			l-4.093-6.529c-0.205-0.302-0.608-0.846-0.608-1.387c0-0.981,1.589-1.014,1.589-1.591c0-0.304-0.404-0.338-0.644-0.338
			c-0.337,0-1.25,0.135-2.369,0.135c-2.299,0-2.94-0.135-3.854-0.135c-0.236,0-0.44,0.272-0.44,0.506
			c0,0.575,1.658,0.169,2.537,1.624L133.715,5.069z"/>
		<path fill="#FFFFFF" d="M-89.85,9.153c0,2.061-1.958,1.229-1.958,1.906c0,0.379,0.295,0.362,0.607,0.362
			c0.692,0,1.264-0.07,2.425-0.07c1.161,0,1.733,0.07,2.425,0.07c0.503,0,0.849,0.052,0.849-0.362c0-0.487-2.217,0.017-2.217-2.114
			V1.114c0-0.832,0.172-0.919,0.883-0.919h1.472c1.994-0.069,1.438,1.854,2.131,1.854c0.451,0,0.261-0.674,0.225-0.884l-0.19-1.593
			c-0.018-0.172-0.018-0.415-0.278-0.415c-1.61,0-2.771,0.069-5.3,0.069c-2.53,0-3.69-0.069-5.302-0.069
			c-0.259,0-0.259,0.241-0.276,0.415l-0.278,2.287c-0.035,0.225-0.138,0.606,0.226,0.606c0.78,0,0.259-2.268,2.216-2.268h1.457
			c0.709,0,0.883,0.086,0.883,0.918V9.153z"/>
		<path fill="#FFFFFF" d="M-70.347,0.976c0-1.698,1.248-0.953,1.248-1.61c0-0.157-0.069-0.208-0.364-0.208
			c-0.744,0-1.386,0.069-2.287,0.069c-1.074,0-1.524-0.069-2.233-0.069c-0.244,0-0.399-0.035-0.399,0.277
			c0,0.502,1.906-0.123,1.906,1.783v2.445c0,0.38-0.104,0.779-0.607,0.779h-5.145c-0.362,0-0.433-0.226-0.433-0.692V0.993
			c0-1.541,1.333-1.039,1.333-1.577c0-0.173-0.155-0.259-0.398-0.259c-0.502,0-1.194,0.069-2.235,0.069
			c-0.899,0-1.421-0.069-1.939-0.069c-0.331,0-0.849,0.017-0.849,0.277c0,0.657,1.958-0.104,1.958,1.783v7.729
			c0,2.147-1.474,1.524-1.474,2.216c0,0.226,0.174,0.26,0.381,0.26c0.867,0,1.595-0.07,2.321-0.07c1.248,0,1.82,0.07,2.53,0.07
			c0.554,0,0.52-0.14,0.52-0.242c0-0.624-2.148,0-2.148-2.148V6.312c0-0.759,0.053-0.935,0.849-0.935h4.625
			c0.762,0,0.711,0.192,0.711,0.918v3.118c0,1.68-1.265,1.212-1.265,1.819c0,0.12,0.104,0.19,0.347,0.19
			c0.882,0,1.558-0.07,2.181-0.07c0.711,0,1.733,0.07,2.305,0.07c0.226,0,0.364,0.017,0.364-0.209c0-0.676-1.802-0.033-1.802-2.235
			V0.976z"/>
		<path fill="#FFFFFF" d="M-63.61,1.183c0-1.194,0.069-1.214,2.164-1.214c3.345,0,1.993,2.028,2.808,2.028
			c0.398,0,0.311-0.569,0.293-0.797l-0.069-1.714c0-0.157-0.121-0.329-0.347-0.329c-1.523,0-2.72,0.069-3.949,0.069
			c-2.651,0-3.899-0.069-4.607-0.069c-0.244,0-0.382,0.138-0.382,0.295c0,0.692,1.958,0.139,1.958,1.697v8.107
			c0,2.115-1.315,1.177-1.315,1.977c0,0.102,0.104,0.19,0.328,0.19c0.953,0,1.681-0.07,2.217-0.07c0.867,0,1.906,0.07,4.539,0.07
			c1.421,0,2.443-1.42,2.443-2.773c0-0.328-0.121-0.38-0.19-0.38c-0.659,0-0.416,2.269-4.713,2.269
			c-1.246,0-1.177-0.623-1.177-1.697V6.623c0-1.004-0.069-1.21,0.728-1.21h1.28c1.802,0,1.318,1.834,1.872,1.834
			c0.416,0,0.312-0.623,0.295-0.849l-0.121-3.084c-0.018-0.468-0.208-0.431-0.33-0.431c-0.347,0-0.398,1.594-1.889,1.594h-1.092
			c-0.744,0-0.744-0.122-0.744-0.867V1.183z"/>
		<path fill="#FFFFFF" d="M175.935,14.516c0,2.282-3.011,1.903-3.011,2.816c0,0.379,0.116,0.493,0.457,0.493
			c0.231,0,0.951-0.153,5.213-0.153c1.106,0,2.172,0.153,3.087,0.153c0.377,0,0.342-0.343,0.342-0.457
			c0-1.179-3.084,0.078-3.084-3.121V-5.164c0-2.017-0.19-1.867,1.523-1.867h5.444c3.885,0,1.827,2.896,3.236,2.896
			c0.495,0,0.458-0.458,0.418-0.838l-0.19-3.045c-0.038-0.876-0.228-1.104-1.104-1.104c-0.758,0-4.263,0.152-11.151,0.152
			c-4.909,0-7.841-0.152-10.815-0.152c-0.682,0-0.644,1.027-0.682,1.485l-0.418,3.691c0,0.19,0.152,0.457,0.378,0.457
			c0.494,0,0.534-0.493,0.647-0.876c0.687-2.094,0.762-2.666,3.125-2.666h6.201c0.533,0.04,0.382,1.485,0.382,1.752v19.793H175.935z
			"/>
		<path fill="#FFFFFF" d="M196.913-5.047c0-2.54-0.076-2.387,3.561-2.387c1.518,0,5.46-0.228,6.442,1.062
			c0.608,0.872,0,2.69,0.911,2.69c0.229,0,0.755-0.303,0.755-4.508c0-0.455-0.076-0.835-0.38-0.835
			c-1.169,0-4.656,0.153-5.415,0.153c-1.593,0-3.563-0.153-10.724-0.153c-1.099,0-1.329,0.153-1.329,0.456
			c0,0.455,0.834,0.531,1.14,0.607c2.046,0.303,2.046,2.121,2.046,3.827v17.281c0,1.78-0.075,2.841-1.063,3.296
			c-1.212,0.606-1.593,0.531-1.669,0.986c0,0.303,0.229,0.378,0.568,0.378c1.517,0,3.107-0.113,4.625-0.151
			c2.878-0.077,5.759,0.151,8.64,0.151c1.666,0,2.5,0.075,3.711-1.289c0.911-0.984,1.897-2.31,1.897-3.674
			c0-0.077-0.038-0.457-0.302-0.457c-0.495,0-1.785,3.904-10.538,3.904c-3.182,0-2.878-0.909-2.878-3.145V6.171
			c0-0.568-0.113-1.211,0.681-1.211h5.608c3.184,0,1.896,3.335,3.071,3.335c0.264,0,0.415-0.153,0.415-0.493
			c0-1.021-0.073-2.007-0.073-2.993c0-1.212,0.073-2.5,0.073-3.826c0-0.303-0.111-0.719-0.415-0.719c-0.909,0,0.112,3.03-3.827,3.03
			h-4.093c-1.516,0-1.439,0-1.439-1.288V-5.047L196.913-5.047z"/>
		<path fill="#FFFFFF" d="M216.064,12.422c0,5.306-3.336,3.637-3.336,4.965c0,0.188,0.035,0.416,0.492,0.416
			c0.267,0,2.238-0.151,3.563-0.151c1.856,0,2.917,0.151,3.827,0.151c0.379,0,0.417-0.303,0.417-0.491
			c0-1.023-3.335,0.301-3.335-3.106V-1.297c0-0.756,0.113-0.87,0.264-0.87c0.267,0,0.724,0.642,0.799,0.719l16.293,18.342
			c0.796,0.871,1.174,1.062,1.439,1.062c0.302,0,0.34-0.531,0.34-1.631V-5.616c0-2.766,2.238-2.084,2.238-3.07
			c0-0.226-0.15-0.341-0.377-0.341c-0.91,0-2.541,0.152-3.829,0.152c-1.209,0-2.314-0.152-3.448-0.152
			c-0.228,0-0.417,0.115-0.417,0.38c0,1.249,4.206-0.19,4.206,4.774v15.84c0,0.302-0.035,0.416-0.112,0.416
			c-0.075,0-0.229-0.15-0.454-0.416L216.556-8.154c-0.227-0.267-0.565-0.873-0.98-0.873c-0.57,0-1.178,0.152-1.747,0.152
			c-0.607,0-1.17-0.152-1.778-0.152c-0.19,0-0.569,0.152-0.569,0.38c0,1.401,4.587-0.797,4.587,7.086v13.983H216.064z"/>
		<path fill="#FFFFFF" d="M245.24,12.422c0,5.306-3.334,3.637-3.334,4.965c0,0.188,0.039,0.416,0.492,0.416
			c0.264,0,2.236-0.151,3.564-0.151c1.855,0,2.916,0.151,3.827,0.151c0.377,0,0.415-0.303,0.415-0.491
			c0-1.023-3.332,0.301-3.332-3.106V-1.297c0-0.756,0.108-0.87,0.264-0.87c0.265,0,0.719,0.642,0.795,0.719l16.297,18.342
			c0.794,0.871,1.174,1.062,1.441,1.062c0.299,0,0.34-0.531,0.34-1.631V-5.616c0-2.766,2.234-2.084,2.234-3.07
			c0-0.226-0.153-0.341-0.377-0.341c-0.908,0-2.541,0.152-3.825,0.152c-1.216,0-2.314-0.152-3.45-0.152
			c-0.226,0-0.416,0.115-0.416,0.38c0,1.249,4.206-0.19,4.206,4.774v15.84c0,0.302-0.038,0.416-0.115,0.416
			c-0.073,0-0.225-0.15-0.453-0.416L245.737-8.154c-0.229-0.267-0.569-0.873-0.987-0.873c-0.568,0-1.174,0.152-1.739,0.152
			c-0.609,0-1.178-0.152-1.783-0.152c-0.188,0-0.568,0.152-0.568,0.38c0,1.401,4.584-0.797,4.584,7.086v13.983H245.24z"/>
		<path fill="#FFFFFF" d="M277.172-5.047c0-2.54-0.077-2.387,3.562-2.387c1.518,0,5.46-0.228,6.442,1.062
			c0.608,0.872,0,2.69,0.909,2.69c0.229,0,0.757-0.303,0.757-4.508c0-0.455-0.076-0.835-0.378-0.835
			c-1.172,0-4.661,0.153-5.417,0.153c-1.592,0-3.564-0.153-10.724-0.153c-1.099,0-1.327,0.153-1.327,0.456
			c0,0.455,0.832,0.531,1.137,0.607c2.044,0.303,2.044,2.121,2.044,3.827v17.281c0,1.78-0.074,2.841-1.058,3.296
			c-1.211,0.606-1.593,0.531-1.67,0.986c0,0.303,0.228,0.378,0.566,0.378c1.517,0,3.108-0.113,4.624-0.151
			c2.88-0.077,5.76,0.151,8.644,0.151c1.666,0,2.498,0.075,3.711-1.289c0.908-0.984,1.896-2.31,1.896-3.674
			c0-0.077-0.04-0.457-0.304-0.457c-0.491,0-1.782,3.904-10.536,3.904c-3.182,0-2.88-0.909-2.88-3.145V6.171
			c0-0.568-0.112-1.211,0.682-1.211h5.607c3.185,0,1.897,3.335,3.071,3.335c0.264,0,0.419-0.153,0.419-0.493
			c0-1.021-0.078-2.007-0.078-2.993c0-1.212,0.078-2.5,0.078-3.826c0-0.303-0.113-0.719-0.419-0.719c-0.907,0,0.113,3.03-3.825,3.03
			h-4.093c-1.519,0-1.442,0-1.442-1.288v-7.053H277.172z"/>
		<path fill="#FFFFFF" d="M294.237,15.984c0.153,0.685,3.599,2.084,6.404,2.084c8.602,0,10.838-4.774,10.838-7.958
			c0-10.459-15.388-6.291-15.388-13.416c0-3.485,3.186-4.926,6.179-4.926c3.337,0,6.103,1.668,7.238,4.926
			c0.114,0.341,0.378,1.14,0.797,1.14c0.375,0,0.454-0.267,0.418-0.569l-0.566-5.153c-0.04-0.417-0.23-0.532-0.457-0.532
			c-0.377,0-0.454,0.417-0.797,0.417c-0.53,0-1.778-1.362-6.366-1.362c-4.357,0-8.413,2.312-8.413,7.123
			c0,9.891,15.386,5.798,15.386,13.112c0,3.979-3.522,5.986-7.121,5.986c-5.232,0-7.504-3.943-7.96-5.684
			c-0.188-0.797-0.188-1.252-0.72-1.252c-0.379,0-0.569,0.419-0.419,1.176L294.237,15.984z"/>
		<path fill="#FFFFFF" d="M314.245,15.984c0.151,0.685,3.602,2.084,6.405,2.084c8.602,0,10.838-4.774,10.838-7.958
			c0-10.459-15.388-6.291-15.388-13.416c0-3.485,3.184-4.926,6.179-4.926c3.336,0,6.103,1.668,7.236,4.926
			c0.113,0.341,0.381,1.14,0.796,1.14c0.379,0,0.457-0.267,0.418-0.569l-0.566-5.153c-0.04-0.417-0.229-0.532-0.454-0.532
			c-0.377,0-0.453,0.417-0.797,0.417c-0.53,0-1.781-1.362-6.367-1.362c-4.356,0-8.412,2.312-8.412,7.123
			c0,9.891,15.386,5.798,15.386,13.112c0,3.979-3.525,5.986-7.124,5.986c-5.229,0-7.503-3.943-7.958-5.684
			c-0.19-0.797-0.19-1.252-0.721-1.252c-0.377,0-0.567,0.419-0.417,1.176L314.245,15.984z"/>
		<path fill="#FFFFFF" d="M339.497-5.047c0-2.54-0.076-2.387,3.563-2.387c1.518,0,5.457-0.228,6.444,1.062
			c0.606,0.872,0,2.69,0.907,2.69c0.229,0,0.759-0.303,0.759-4.508c0-0.455-0.078-0.835-0.381-0.835
			c-1.174,0-4.664,0.153-5.42,0.153c-1.591,0-3.563-0.153-10.723-0.153c-1.1,0-1.328,0.153-1.328,0.456
			c0,0.455,0.833,0.531,1.138,0.607c2.046,0.303,2.046,2.121,2.046,3.827v17.281c0,1.78-0.076,2.841-1.061,3.296
			c-1.211,0.606-1.589,0.531-1.666,0.986c0,0.303,0.229,0.378,0.565,0.378c1.518,0,3.108-0.113,4.625-0.151
			c2.88-0.077,5.759,0.151,8.64,0.151c1.666,0,2.502,0.075,3.714-1.289c0.909-0.984,1.896-2.31,1.896-3.674
			c0-0.077-0.04-0.457-0.307-0.457c-0.49,0-1.779,3.904-10.533,3.904c-3.186,0-2.879-0.909-2.879-3.145V6.171
			c0-0.568-0.116-1.211,0.683-1.211h5.605c3.185,0,1.897,3.335,3.071,3.335c0.264,0,0.415-0.153,0.415-0.493
			c0-1.021-0.074-2.007-0.074-2.993c0-1.212,0.074-2.5,0.074-3.826c0-0.303-0.109-0.719-0.415-0.719c-0.91,0,0.113,3.03-3.827,3.03
			h-4.091c-1.518,0-1.441,0-1.441-1.288V-5.047L339.497-5.047z"/>
		<path fill="#FFFFFF" d="M360.059-5.047c0-2.54-0.077-2.387,3.563-2.387c1.516,0,5.458-0.228,6.442,1.062
			c0.605,0.872,0,2.69,0.907,2.69c0.229,0,0.759-0.303,0.759-4.508c0-0.455-0.077-0.835-0.379-0.835
			c-1.174,0-4.662,0.153-5.417,0.153c-1.596,0-3.563-0.153-10.727-0.153c-1.099,0-1.324,0.153-1.324,0.456
			c0,0.455,0.831,0.531,1.135,0.607c2.046,0.303,2.046,2.121,2.046,3.827v17.281c0,1.78-0.073,2.841-1.063,3.296
			c-1.21,0.606-1.588,0.531-1.666,0.986c0,0.303,0.229,0.378,0.569,0.378c1.516,0,3.105-0.113,4.622-0.151
			c2.882-0.077,5.761,0.151,8.64,0.151c1.667,0,2.501,0.075,3.715-1.289c0.907-0.984,1.892-2.31,1.892-3.674
			c0-0.077-0.033-0.457-0.301-0.457c-0.49,0-1.78,3.904-10.533,3.904c-3.185,0-2.881-0.909-2.881-3.145V6.171
			c0-0.568-0.114-1.211,0.682-1.211h5.608c3.186,0,1.895,3.335,3.068,3.335c0.267,0,0.417-0.153,0.417-0.493
			c0-1.021-0.076-2.007-0.076-2.993c0-1.212,0.076-2.5,0.076-3.826c0-0.303-0.11-0.719-0.417-0.719c-0.91,0,0.117,3.03-3.825,3.03
			h-4.091c-1.52,0-1.441,0-1.441-1.288L360.059-5.047L360.059-5.047z"/>
		<g>
			<line fill="none" x1="-93.961" y1="27.11" x2="419.864" y2="27.11"/>
			<rect x="-93.961" y="26.718" fill="#FFFFFF" width="513.826" height="0.785"/>
		</g>
		<path fill="#FFFFFF" d="M412.225,36.969c0-0.826,0.443-0.784,1.207-0.784c2.076,0,4.048,0.869,4.048,3.455
			c0,2.627-2.036,3.009-2.946,3.009c-0.996,0-2.309,0.104-2.309-0.298V36.969z M416.397,42.816c1.483-0.591,2.67-2.011,2.67-3.666
			c0-4.087-4.682-3.663-5.021-3.663c-1.101,0-2.312,0.086-3.539,0.086c-1.081,0-0.975-0.086-1.356-0.086
			c-0.255,0-0.423,0.125-0.423,0.253c0,0.72,1.82-0.149,1.82,1.885v10.786c0,1.609-1.545,1.313-1.545,1.843
			c0,0.127,0.086,0.232,0.212,0.232c0.806,0,1.609-0.085,2.415-0.085c1.759,0,2.247,0.085,2.438,0.085
			c0.169,0,0.36,0.043,0.36-0.168c0-0.721-2.203-0.064-2.203-1.886v-4.471c0-0.213-0.129-0.594,0.551-0.594
			c2.374,0,2.056-0.063,2.817,1.122l2.354,3.71c0.806,1.206,1.632,2.286,3.178,2.286c0.19,0,1.377,0,1.377-0.252
			c0-0.51-1.039,0.273-2.563-2.059L416.397,42.816z M399.699,37.71c0-1.417-0.042-1.334,1.992-1.334
			c0.848,0,3.051-0.127,3.603,0.593c0.34,0.489,0,1.504,0.509,1.504c0.127,0,0.423-0.168,0.423-2.52
			c0-0.255-0.041-0.466-0.212-0.466c-0.655,0-2.605,0.086-3.028,0.086c-0.889,0-1.993-0.086-5.996-0.086
			c-0.616,0-0.742,0.086-0.742,0.253c0,0.254,0.466,0.297,0.635,0.339c1.144,0.17,1.144,1.189,1.144,2.14v9.662
			c0,0.996-0.04,1.59-0.594,1.844c-0.677,0.339-0.887,0.296-0.932,0.554c0,0.167,0.126,0.212,0.314,0.212
			c0.849,0,1.738-0.064,2.586-0.086c1.61-0.042,3.22,0.086,4.831,0.086c0.934,0,1.399,0.039,2.077-0.721
			c0.509-0.552,1.059-1.294,1.059-2.059c0-0.041-0.02-0.253-0.17-0.253c-0.272,0-0.995,2.185-5.889,2.185
			c-1.781,0-1.611-0.509-1.611-1.76v-3.901c0-0.315-0.062-0.677,0.382-0.677h3.136c1.78,0,1.06,1.863,1.719,1.863
			c0.147,0,0.231-0.084,0.231-0.274c0-0.571-0.043-1.123-0.043-1.672c0-0.681,0.043-1.401,0.043-2.14
			c0-0.169-0.064-0.405-0.231-0.405c-0.509,0,0.062,1.695-2.142,1.695h-2.288c-0.848,0-0.808,0-0.808-0.72V37.71H399.699z
			 M387.029,48.645c0,1.271-1.674,1.058-1.674,1.566c0,0.213,0.064,0.275,0.254,0.275c0.129,0,0.53-0.085,2.903-0.085
			c0.616,0,1.209,0.085,1.719,0.085c0.213,0,0.188-0.189,0.188-0.252c0-0.658-1.714,0.041-1.714-1.738V37.689
			c0-1.123-0.107-1.039,0.846-1.039h3.029c2.162,0,1.018,1.611,1.802,1.611c0.273,0,0.255-0.255,0.232-0.467l-0.106-1.694
			c-0.021-0.489-0.126-0.616-0.614-0.616c-0.425,0-2.373,0.085-6.208,0.085c-2.733,0-4.364-0.085-6.018-0.085
			c-0.382,0-0.36,0.571-0.382,0.826l-0.232,2.055c0,0.106,0.085,0.255,0.211,0.255c0.277,0,0.298-0.276,0.362-0.487
			c0.38-1.165,0.423-1.484,1.736-1.484h3.452c0.295,0.025,0.213,0.828,0.213,0.976V48.645z M365.944,47.479
			c0,2.966-1.864,2.034-1.864,2.774c0,0.107,0.021,0.232,0.276,0.232c0.146,0,1.25-0.085,1.991-0.085
			c1.039,0,1.634,0.085,2.141,0.085c0.213,0,0.231-0.168,0.231-0.275c0-0.57-1.865,0.169-1.865-1.736V39.81
			c0-0.425,0.064-0.489,0.151-0.489c0.147,0,0.402,0.36,0.445,0.403l9.11,10.256c0.444,0.486,0.657,0.593,0.805,0.593
			c0.17,0,0.193-0.294,0.193-0.911V37.394c0-1.546,1.248-1.165,1.248-1.718c0-0.128-0.085-0.188-0.212-0.188
			c-0.509,0-1.419,0.086-2.14,0.086c-0.678,0-1.291-0.086-1.929-0.086c-0.125,0-0.229,0.061-0.229,0.211
			c0,0.697,2.352-0.105,2.352,2.67v8.858c0,0.167-0.021,0.231-0.064,0.231s-0.126-0.086-0.255-0.231l-10.105-11.252
			c-0.129-0.147-0.317-0.487-0.554-0.487c-0.315,0-0.655,0.086-0.975,0.086c-0.337,0-0.656-0.086-0.993-0.086
			c-0.105,0-0.318,0.086-0.318,0.211c0,0.785,2.563-0.444,2.563,3.961v7.82H365.944z M354.758,37.71
			c0-1.417-0.041-1.334,1.992-1.334c0.848,0,3.052-0.127,3.603,0.593c0.34,0.489,0,1.504,0.507,1.504
			c0.129,0,0.425-0.168,0.425-2.52c0-0.255-0.04-0.466-0.211-0.466c-0.658,0-2.606,0.086-3.03,0.086
			c-0.891,0-1.994-0.086-5.997-0.086c-0.616,0-0.741,0.086-0.741,0.253c0,0.254,0.466,0.297,0.633,0.339
			c1.145,0.17,1.145,1.189,1.145,2.14v9.662c0,0.996-0.041,1.59-0.593,1.844c-0.678,0.339-0.889,0.296-0.932,0.554
			c0,0.167,0.125,0.212,0.318,0.212c0.847,0,1.735-0.064,2.583-0.086c1.607-0.042,3.221,0.086,4.831,0.086
			c0.933,0,1.399,0.039,2.074-0.721c0.509-0.552,1.063-1.294,1.063-2.059c0-0.041-0.023-0.253-0.171-0.253
			c-0.275,0-0.996,2.185-5.891,2.185c-1.779,0-1.607-0.509-1.607-1.76v-3.901c0-0.315-0.064-0.677,0.38-0.677h3.137
			c1.78,0,1.061,1.863,1.716,1.863c0.147,0,0.232-0.084,0.232-0.274c0-0.571-0.042-1.123-0.042-1.672
			c0-0.681,0.042-1.401,0.042-2.14c0-0.169-0.064-0.405-0.232-0.405c-0.509,0,0.064,1.695-2.14,1.695h-2.29
			c-0.846,0-0.803,0-0.803-0.72V37.71L354.758,37.71z M335.264,43.262c0,4.387,3.115,7.374,7.459,7.374
			c4.767,0,6.271-1.59,6.295-1.673l0.486-2.119c0.024-0.106-0.085-0.235-0.19-0.235c-0.126,0-0.255,0.129-0.294,0.279
			c-0.319,0.975-2.395,3.094-5.724,3.094c-4.068,0-6.187-3.688-6.187-7.375c0-3.94,1.992-6.695,6.122-6.695
			c2.734,0,4.238,1.377,5.552,3.644c0.086,0.149,0.234,0.697,0.49,0.697c0.358,0,0.169-0.697,0.126-1.822
			c-0.064-1.376-0.064-1.715-0.296-1.715c-0.213,0-0.339,0.213-0.508,0.213c-0.616,0-1.718-1.634-5.701-1.634
			C338.423,35.294,335.264,38.876,335.264,43.262 M319.838,37.71c0-1.417-0.041-1.334,1.992-1.334c0.848,0,3.053-0.127,3.603,0.593
			c0.34,0.489,0,1.504,0.509,1.504c0.127,0,0.423-0.168,0.423-2.52c0-0.255-0.04-0.466-0.211-0.466c-0.656,0-2.606,0.086-3.03,0.086
			c-0.888,0-1.991-0.086-5.996-0.086c-0.613,0-0.742,0.086-0.742,0.253c0,0.254,0.468,0.297,0.636,0.339
			c1.146,0.17,1.146,1.189,1.146,2.14v9.662c0,0.996-0.042,1.59-0.594,1.844c-0.681,0.339-0.889,0.296-0.934,0.554
			c0,0.167,0.129,0.212,0.317,0.212c0.847,0,1.737-0.064,2.585-0.086c1.609-0.042,3.222,0.086,4.831,0.086
			c0.932,0,1.397,0.039,2.075-0.721c0.509-0.552,1.061-1.294,1.061-2.059c0-0.041-0.021-0.253-0.168-0.253
			c-0.276,0-0.997,2.185-5.893,2.185c-1.779,0-1.607-0.509-1.607-1.76v-3.901c0-0.315-0.064-0.677,0.378-0.677h3.137
			c1.782,0,1.061,1.863,1.718,1.863c0.147,0,0.231-0.084,0.231-0.274c0-0.571-0.043-1.123-0.043-1.672
			c0-0.681,0.043-1.401,0.043-2.14c0-0.169-0.062-0.405-0.231-0.405c-0.509,0,0.063,1.695-2.14,1.695h-2.288
			c-0.848,0-0.807,0-0.807-0.72V37.71z M300.344,43.262c0,4.387,3.115,7.374,7.459,7.374c4.767,0,6.271-1.59,6.295-1.673
			l0.486-2.119c0.024-0.106-0.085-0.235-0.19-0.235c-0.126,0-0.251,0.129-0.294,0.279c-0.319,0.975-2.395,3.094-5.724,3.094
			c-4.068,0-6.187-3.688-6.187-7.375c0-3.94,1.992-6.695,6.122-6.695c2.734,0,4.239,1.377,5.552,3.644
			c0.086,0.149,0.234,0.697,0.49,0.697c0.358,0,0.169-0.697,0.126-1.822c-0.064-1.376-0.064-1.715-0.296-1.715
			c-0.213,0-0.339,0.213-0.508,0.213c-0.616,0-1.718-1.634-5.701-1.634C303.503,35.294,300.344,38.876,300.344,43.262
			 M284.92,47.479c0,2.966-1.865,2.034-1.865,2.774c0,0.107,0.024,0.232,0.275,0.232c0.15,0,1.251-0.085,1.992-0.085
			c1.04,0,1.632,0.085,2.141,0.085c0.211,0,0.232-0.168,0.232-0.275c0-0.57-1.863,0.169-1.863-1.736V39.81
			c0-0.425,0.064-0.489,0.146-0.489c0.15,0,0.405,0.36,0.448,0.403l9.11,10.256c0.444,0.486,0.656,0.593,0.807,0.593
			c0.168,0,0.189-0.294,0.189-0.911V37.394c0-1.546,1.251-1.165,1.251-1.718c0-0.128-0.086-0.188-0.213-0.188
			c-0.508,0-1.421,0.086-2.142,0.086c-0.678,0-1.29-0.086-1.928-0.086c-0.126,0-0.233,0.061-0.233,0.211
			c0,0.697,2.354-0.105,2.354,2.67v8.858c0,0.167-0.023,0.231-0.064,0.231s-0.129-0.086-0.254-0.231l-10.106-11.252
			c-0.127-0.147-0.318-0.487-0.553-0.487c-0.319,0-0.656,0.086-0.975,0.086c-0.338,0-0.656-0.086-0.997-0.086
			c-0.103,0-0.315,0.086-0.315,0.211c0,0.785,2.564-0.444,2.564,3.961v7.82H284.92z M273.729,37.71c0-1.417-0.04-1.334,1.994-1.334
			c0.848,0,3.051-0.127,3.603,0.593c0.339,0.489,0,1.504,0.509,1.504c0.126,0,0.425-0.168,0.425-2.52
			c0-0.255-0.043-0.466-0.214-0.466c-0.655,0-2.604,0.086-3.028,0.086c-0.891,0-1.994-0.086-5.998-0.086
			c-0.614,0-0.74,0.086-0.74,0.253c0,0.254,0.466,0.297,0.633,0.339c1.146,0.17,1.146,1.189,1.146,2.14v9.662
			c0,0.996-0.041,1.59-0.594,1.844c-0.677,0.339-0.889,0.296-0.932,0.554c0,0.167,0.126,0.212,0.316,0.212
			c0.849,0,1.736-0.064,2.584-0.086c1.61-0.042,3.222,0.086,4.831,0.086c0.932,0,1.398,0.039,2.077-0.721
			c0.507-0.552,1.058-1.294,1.058-2.059c0-0.041-0.021-0.253-0.167-0.253c-0.276,0-0.996,2.185-5.893,2.185
			c-1.779,0-1.609-0.509-1.609-1.76v-3.901c0-0.315-0.061-0.677,0.381-0.677h3.136c1.781,0,1.061,1.863,1.72,1.863
			c0.147,0,0.229-0.084,0.229-0.274c0-0.571-0.039-1.123-0.039-1.672c0-0.681,0.039-1.401,0.039-2.14
			c0-0.169-0.061-0.405-0.229-0.405c-0.509,0,0.062,1.695-2.143,1.695h-2.287c-0.848,0-0.807,0-0.807-0.72V37.71L273.729,37.71z
			 M264.557,48.157c0,2.097-1.652,1.4-1.652,2.013c0,0.211,0.063,0.316,0.443,0.316c0.296,0,0.743-0.085,2.035-0.085
			c0.91,0,1.821,0.085,2.31,0.085c0.36,0,0.427-0.063,0.427-0.211c0-0.635-1.889-0.15-1.889-1.591V37.307
			c0-1.59,1.526-1.103,1.526-1.608c0-0.17-0.062-0.214-0.401-0.214c-0.657,0-1.313,0.085-1.971,0.085
			c-0.783,0-1.546-0.085-2.33-0.085c-0.17,0-0.213,0.043-0.213,0.232c0,0.466,1.695,0.043,1.718,1.59v10.851H264.557z
			 M246.332,43.262c0,4.387,3.117,7.374,7.46,7.374c4.769,0,6.271-1.59,6.295-1.673l0.487-2.119
			c0.021-0.106-0.086-0.235-0.189-0.235c-0.126,0-0.255,0.129-0.296,0.279c-0.319,0.975-2.396,3.094-5.722,3.094
			c-4.068,0-6.187-3.688-6.187-7.375c0-3.94,1.992-6.695,6.122-6.695c2.734,0,4.236,1.377,5.552,3.644
			c0.085,0.149,0.232,0.697,0.487,0.697c0.358,0,0.168-0.697,0.129-1.822c-0.064-1.376-0.064-1.715-0.298-1.715
			c-0.212,0-0.339,0.213-0.509,0.213c-0.614,0-1.717-1.634-5.699-1.634C249.492,35.294,246.332,38.876,246.332,43.262
			 M234.448,49.471c0.084,0.382,2.011,1.165,3.58,1.165c4.809,0,6.06-2.67,6.06-4.45c0-5.849-8.604-3.518-8.604-7.501
			c0-1.95,1.781-2.755,3.453-2.755c1.865,0,3.414,0.934,4.047,2.755c0.064,0.191,0.213,0.636,0.447,0.636
			c0.212,0,0.255-0.148,0.23-0.317l-0.316-2.882c-0.021-0.232-0.127-0.294-0.254-0.294c-0.212,0-0.255,0.23-0.444,0.23
			c-0.296,0-0.997-0.764-3.563-0.764c-2.435,0-4.703,1.294-4.703,3.985c0,5.53,8.603,3.241,8.603,7.329
			c0,2.229-1.972,3.352-3.982,3.352c-2.925,0-4.196-2.204-4.451-3.18c-0.104-0.444-0.104-0.698-0.401-0.698
			c-0.213,0-0.319,0.232-0.233,0.655L234.448,49.471z M212.093,48.157c0,2.097-1.654,1.4-1.654,2.013
			c0,0.211,0.064,0.316,0.234,0.316c0.085,0,0.316-0.085,1.821-0.085c1.122,0,2.67,0.085,2.946,0.085
			c0.189,0,0.337-0.063,0.337-0.168c0-0.657-2.01-0.191-2.01-1.633v-5.274c0-0.232,0-0.359,0.253-0.359h7.817
			c0.255,0,0.169,0.191,0.169,0.53v5.085c0,1.336-1.482,1.038-1.482,1.547c0,0.337,0.317,0.276,0.507,0.276
			c0.405,0,0.998-0.086,2.354-0.086c0.764,0,1.42,0.086,1.993,0.086c0.146,0,0.229-0.192,0.229-0.255c0-0.53-1.928-0.15-1.928-1.695
			V37.31c0-1.462,1.419-1.103,1.419-1.482c0-0.126-0.043-0.34-0.593-0.34c-0.425,0-0.744,0.086-1.528,0.086
			c-0.401,0-1.502-0.086-2.201-0.086c-0.317,0-0.358,0.105-0.358,0.232c0,0.487,1.588,0.128,1.588,1.59v4.346
			c0,0.084,0.043,0.614-0.169,0.614h-7.756c-0.314,0-0.314-0.084-0.314-0.382v-4.577c0-1.589,1.525-1.186,1.525-1.609
			c0-0.085-0.043-0.211-0.403-0.211c-0.656,0-1.314,0.086-1.971,0.086c-0.785,0-1.547-0.086-2.33-0.086
			c-0.167,0-0.34,0.041-0.34,0.231c0,0.466,1.823,0.041,1.844,1.589V48.157z M200.904,48.645c0,1.271-1.672,1.058-1.672,1.566
			c0,0.213,0.062,0.275,0.255,0.275c0.125,0,0.527-0.085,2.902-0.085c0.615,0,1.208,0.085,1.717,0.085
			c0.212,0,0.19-0.189,0.19-0.252c0-0.658-1.717,0.041-1.717-1.738V37.689c0-1.123-0.105-1.039,0.85-1.039h3.028
			c2.161,0,1.018,1.611,1.803,1.611c0.272,0,0.251-0.255,0.229-0.467l-0.104-1.694c-0.023-0.489-0.126-0.616-0.616-0.616
			c-0.427,0-2.375,0.085-6.208,0.085c-2.734,0-4.365-0.085-6.018-0.085c-0.381,0-0.359,0.571-0.381,0.826l-0.232,2.055
			c0,0.106,0.084,0.255,0.211,0.255c0.276,0,0.295-0.276,0.359-0.487c0.383-1.165,0.426-1.484,1.738-1.484h3.453
			c0.296,0.025,0.211,0.828,0.211,0.976V48.645z M188.271,37.584c0-1.844,1.547-1.315,1.547-1.8c0-0.254-0.126-0.297-0.401-0.297
			c-0.319,0-0.826,0.086-2.036,0.086c-1.036,0-1.695-0.086-2.14-0.086c-0.275,0-0.423,0.043-0.423,0.275
			c0,0.425,1.781,0.277,1.781,1.38v10.741c0,0.997-0.043,1.59-0.595,1.845c-0.678,0.338-0.89,0.295-0.933,0.553
			c0,0.167,0.126,0.212,0.316,0.212c0.849,0,1.738-0.064,2.584-0.086c1.611-0.041,3.222,0.086,4.831,0.086
			c0.936,0,1.401,0.04,2.077-0.721c0.509-0.552,1.06-1.294,1.06-2.057c0-0.043-0.021-0.255-0.169-0.255
			c-0.276,0-0.996,2.185-5.889,2.185c-1.781,0-1.612-0.509-1.612-1.76L188.271,37.584L188.271,37.584z M178.822,47.161
			c0.214,0.573,0.659,1.548,0.659,2.014c0,0.805-1.272,0.592-1.272,1.101c0,0.211,0.34,0.211,0.466,0.211
			c0.571,0,1.144-0.085,1.717-0.085c0.87,0,1.736,0.085,2.605,0.085c0.15,0,0.296,0,0.296-0.189c0-0.53-1.228-0.063-1.865-1.038
			c-0.487-0.743-0.742-1.632-1.06-2.415l-4.406-10.914c-0.064-0.167-0.215-0.783-0.447-0.783c-0.273,0-0.338,0.341-1.589,3.009
			l-5.065,10.808c-0.553,1.208-1.546,0.847-1.546,1.291c0,0.127,0.063,0.232,0.19,0.232c0.55,0,1.124-0.085,1.695-0.085
			c0.595,0,1.187,0.085,1.781,0.085c0.275,0,0.573,0.064,0.573-0.316c0-0.554-1.505,0.084-1.505-1.399
			c0-0.276,0.085-0.595,0.149-0.742l1.355-2.966c0.211-0.446,0.592-0.446,0.996-0.446h4.66c0.595,0,0.72,0.319,0.933,0.805
			L178.822,47.161z M174.818,38.155c0.127-0.254,0.231-0.254,0.34,0l2.076,5.106c0.105,0.278,0.127,0.426-0.339,0.426h-4.197
			c-0.277,0-0.425-0.086-0.277-0.382L174.818,38.155z M158.353,37.71c0-1.417-0.042-1.334,1.992-1.334
			c0.848,0,3.051-0.127,3.601,0.593c0.339,0.489,0,1.504,0.509,1.504c0.127,0,0.425-0.168,0.425-2.52
			c0-0.255-0.042-0.466-0.213-0.466c-0.656,0-2.605,0.086-3.029,0.086c-0.89,0-1.991-0.086-5.997-0.086
			c-0.614,0-0.741,0.086-0.741,0.253c0,0.254,0.467,0.297,0.636,0.339c1.144,0.17,1.144,1.189,1.144,2.14v9.662
			c0,0.996-0.042,1.59-0.593,1.844c-0.678,0.339-0.891,0.296-0.933,0.554c0,0.167,0.127,0.212,0.317,0.212
			c0.848,0,1.737-0.064,2.585-0.086c1.61-0.042,3.22,0.086,4.831,0.086c0.934,0,1.399,0.039,2.077-0.721
			c0.509-0.552,1.061-1.294,1.061-2.059c0-0.041-0.021-0.253-0.17-0.253c-0.274,0-0.995,2.185-5.89,2.185
			c-1.779,0-1.61-0.509-1.61-1.76v-3.901c0-0.315-0.063-0.677,0.382-0.677h3.136c1.779,0,1.059,1.863,1.717,1.863
			c0.148,0,0.231-0.084,0.231-0.274c0-0.571-0.042-1.123-0.042-1.672c0-0.681,0.042-1.401,0.042-2.14
			c0-0.169-0.063-0.405-0.231-0.405c-0.507,0,0.063,1.695-2.141,1.695h-2.289c-0.848,0-0.806,0-0.806-0.72V37.71H158.353z
			 M139.538,48.157c0,2.097-1.653,1.4-1.653,2.013c0,0.211,0.064,0.316,0.234,0.316c0.085,0,0.317-0.085,1.822-0.085
			c1.122,0,2.67,0.085,2.945,0.085c0.191,0,0.338-0.063,0.338-0.168c0-0.657-2.012-0.191-2.012-1.633v-5.274
			c0-0.232,0-0.359,0.254-0.359h7.818c0.253,0,0.169,0.191,0.169,0.53v5.085c0,1.336-1.484,1.038-1.484,1.547
			c0,0.337,0.319,0.276,0.509,0.276c0.403,0,0.996-0.086,2.353-0.086c0.762,0,1.418,0.086,1.992,0.086
			c0.147,0,0.232-0.192,0.232-0.255c0-0.53-1.927-0.15-1.927-1.695V37.31c0-1.462,1.418-1.103,1.418-1.482
			c0-0.126-0.042-0.34-0.593-0.34c-0.424,0-0.74,0.086-1.525,0.086c-0.402,0-1.504-0.086-2.204-0.086
			c-0.316,0-0.359,0.105-0.359,0.232c0,0.487,1.589,0.128,1.589,1.59v4.346c0,0.084,0.042,0.614-0.169,0.614h-7.756
			c-0.317,0-0.317-0.084-0.317-0.382v-4.577c0-1.589,1.525-1.186,1.525-1.609c0-0.085-0.042-0.211-0.403-0.211
			c-0.656,0-1.313,0.086-1.97,0.086c-0.785,0-1.548-0.086-2.331-0.086c-0.17,0-0.339,0.041-0.339,0.231
			c0,0.466,1.822,0.041,1.842,1.589L139.538,48.157L139.538,48.157z"/>
		<path fill="#FFFFFF" d="M412.225,36.969c0-0.826,0.443-0.784,1.207-0.784c2.076,0,4.048,0.869,4.048,3.455
			c0,2.627-2.036,3.009-2.946,3.009c-0.996,0-2.309,0.104-2.309-0.298V36.969z M416.397,42.816c1.483-0.591,2.67-2.011,2.67-3.666
			c0-4.087-4.682-3.663-5.021-3.663c-1.101,0-2.312,0.086-3.539,0.086c-1.081,0-0.975-0.086-1.356-0.086
			c-0.255,0-0.423,0.125-0.423,0.253c0,0.72,1.82-0.149,1.82,1.885v10.786c0,1.609-1.545,1.313-1.545,1.843
			c0,0.127,0.086,0.232,0.212,0.232c0.806,0,1.609-0.085,2.415-0.085c1.759,0,2.247,0.085,2.438,0.085
			c0.169,0,0.36,0.043,0.36-0.168c0-0.721-2.203-0.064-2.203-1.886v-4.471c0-0.213-0.129-0.594,0.551-0.594
			c2.374,0,2.056-0.063,2.817,1.122l2.354,3.71c0.806,1.206,1.632,2.286,3.178,2.286c0.19,0,1.377,0,1.377-0.252
			c0-0.51-1.039,0.273-2.563-2.059L416.397,42.816z M399.699,37.71c0-1.417-0.042-1.334,1.992-1.334
			c0.848,0,3.051-0.127,3.603,0.593c0.34,0.489,0,1.504,0.509,1.504c0.127,0,0.423-0.168,0.423-2.52
			c0-0.255-0.041-0.466-0.212-0.466c-0.655,0-2.605,0.086-3.028,0.086c-0.889,0-1.993-0.086-5.996-0.086
			c-0.616,0-0.742,0.086-0.742,0.253c0,0.254,0.466,0.297,0.635,0.339c1.144,0.17,1.144,1.189,1.144,2.14v9.662
			c0,0.996-0.04,1.59-0.594,1.844c-0.677,0.339-0.887,0.296-0.932,0.554c0,0.167,0.126,0.212,0.314,0.212
			c0.849,0,1.738-0.064,2.586-0.086c1.61-0.042,3.22,0.086,4.831,0.086c0.934,0,1.399,0.039,2.077-0.721
			c0.509-0.552,1.059-1.294,1.059-2.059c0-0.041-0.02-0.253-0.17-0.253c-0.272,0-0.995,2.185-5.889,2.185
			c-1.781,0-1.611-0.509-1.611-1.76v-3.901c0-0.315-0.062-0.677,0.382-0.677h3.136c1.78,0,1.06,1.863,1.719,1.863
			c0.147,0,0.231-0.084,0.231-0.274c0-0.571-0.043-1.123-0.043-1.672c0-0.681,0.043-1.401,0.043-2.14
			c0-0.169-0.064-0.405-0.231-0.405c-0.509,0,0.062,1.695-2.142,1.695h-2.288c-0.848,0-0.808,0-0.808-0.72V37.71H399.699z
			 M387.029,48.645c0,1.271-1.674,1.058-1.674,1.566c0,0.213,0.064,0.275,0.254,0.275c0.129,0,0.53-0.085,2.903-0.085
			c0.616,0,1.209,0.085,1.719,0.085c0.213,0,0.188-0.189,0.188-0.252c0-0.658-1.714,0.041-1.714-1.738V37.689
			c0-1.123-0.107-1.039,0.846-1.039h3.029c2.162,0,1.018,1.611,1.802,1.611c0.273,0,0.255-0.255,0.232-0.467l-0.106-1.694
			c-0.021-0.489-0.126-0.616-0.614-0.616c-0.425,0-2.373,0.085-6.208,0.085c-2.733,0-4.364-0.085-6.018-0.085
			c-0.382,0-0.36,0.571-0.382,0.826l-0.232,2.055c0,0.106,0.085,0.255,0.211,0.255c0.277,0,0.298-0.276,0.362-0.487
			c0.38-1.165,0.423-1.484,1.736-1.484h3.452c0.295,0.025,0.213,0.828,0.213,0.976V48.645z M365.944,47.479
			c0,2.966-1.864,2.034-1.864,2.774c0,0.107,0.021,0.232,0.276,0.232c0.146,0,1.25-0.085,1.991-0.085
			c1.039,0,1.634,0.085,2.141,0.085c0.213,0,0.231-0.168,0.231-0.275c0-0.57-1.865,0.169-1.865-1.736V39.81
			c0-0.425,0.064-0.489,0.151-0.489c0.147,0,0.402,0.36,0.445,0.403l9.11,10.256c0.444,0.486,0.657,0.593,0.805,0.593
			c0.17,0,0.193-0.294,0.193-0.911V37.394c0-1.546,1.248-1.165,1.248-1.718c0-0.128-0.085-0.188-0.212-0.188
			c-0.509,0-1.419,0.086-2.14,0.086c-0.678,0-1.291-0.086-1.929-0.086c-0.125,0-0.229,0.061-0.229,0.211
			c0,0.697,2.352-0.105,2.352,2.67v8.858c0,0.167-0.021,0.231-0.064,0.231s-0.126-0.086-0.255-0.231l-10.105-11.252
			c-0.129-0.147-0.317-0.487-0.554-0.487c-0.315,0-0.655,0.086-0.975,0.086c-0.337,0-0.656-0.086-0.993-0.086
			c-0.105,0-0.318,0.086-0.318,0.211c0,0.785,2.563-0.444,2.563,3.961v7.82H365.944z M354.758,37.71
			c0-1.417-0.041-1.334,1.992-1.334c0.848,0,3.052-0.127,3.603,0.593c0.34,0.489,0,1.504,0.507,1.504
			c0.129,0,0.425-0.168,0.425-2.52c0-0.255-0.04-0.466-0.211-0.466c-0.658,0-2.606,0.086-3.03,0.086
			c-0.891,0-1.994-0.086-5.997-0.086c-0.616,0-0.741,0.086-0.741,0.253c0,0.254,0.466,0.297,0.633,0.339
			c1.145,0.17,1.145,1.189,1.145,2.14v9.662c0,0.996-0.041,1.59-0.593,1.844c-0.678,0.339-0.889,0.296-0.932,0.554
			c0,0.167,0.125,0.212,0.318,0.212c0.847,0,1.735-0.064,2.583-0.086c1.607-0.042,3.221,0.086,4.831,0.086
			c0.933,0,1.399,0.039,2.074-0.721c0.509-0.552,1.063-1.294,1.063-2.059c0-0.041-0.023-0.253-0.171-0.253
			c-0.275,0-0.996,2.185-5.891,2.185c-1.779,0-1.607-0.509-1.607-1.76v-3.901c0-0.315-0.064-0.677,0.38-0.677h3.137
			c1.78,0,1.061,1.863,1.716,1.863c0.147,0,0.232-0.084,0.232-0.274c0-0.571-0.042-1.123-0.042-1.672
			c0-0.681,0.042-1.401,0.042-2.14c0-0.169-0.064-0.405-0.232-0.405c-0.509,0,0.064,1.695-2.14,1.695h-2.29
			c-0.846,0-0.803,0-0.803-0.72V37.71L354.758,37.71z M335.264,43.262c0,4.387,3.115,7.374,7.459,7.374
			c4.767,0,6.271-1.59,6.295-1.673l0.486-2.119c0.024-0.106-0.085-0.235-0.19-0.235c-0.126,0-0.255,0.129-0.294,0.279
			c-0.319,0.975-2.395,3.094-5.724,3.094c-4.068,0-6.187-3.688-6.187-7.375c0-3.94,1.992-6.695,6.122-6.695
			c2.734,0,4.238,1.377,5.552,3.644c0.086,0.149,0.234,0.697,0.49,0.697c0.358,0,0.169-0.697,0.126-1.822
			c-0.064-1.376-0.064-1.715-0.296-1.715c-0.213,0-0.339,0.213-0.508,0.213c-0.616,0-1.718-1.634-5.701-1.634
			C338.423,35.294,335.264,38.876,335.264,43.262z M319.838,37.71c0-1.417-0.041-1.334,1.992-1.334c0.848,0,3.053-0.127,3.603,0.593
			c0.34,0.489,0,1.504,0.509,1.504c0.127,0,0.423-0.168,0.423-2.52c0-0.255-0.04-0.466-0.211-0.466c-0.656,0-2.606,0.086-3.03,0.086
			c-0.888,0-1.991-0.086-5.996-0.086c-0.613,0-0.742,0.086-0.742,0.253c0,0.254,0.468,0.297,0.636,0.339
			c1.146,0.17,1.146,1.189,1.146,2.14v9.662c0,0.996-0.042,1.59-0.594,1.844c-0.681,0.339-0.889,0.296-0.934,0.554
			c0,0.167,0.129,0.212,0.317,0.212c0.847,0,1.737-0.064,2.585-0.086c1.609-0.042,3.222,0.086,4.831,0.086
			c0.932,0,1.397,0.039,2.075-0.721c0.509-0.552,1.061-1.294,1.061-2.059c0-0.041-0.021-0.253-0.168-0.253
			c-0.276,0-0.997,2.185-5.893,2.185c-1.779,0-1.607-0.509-1.607-1.76v-3.901c0-0.315-0.064-0.677,0.378-0.677h3.137
			c1.782,0,1.061,1.863,1.718,1.863c0.147,0,0.231-0.084,0.231-0.274c0-0.571-0.043-1.123-0.043-1.672
			c0-0.681,0.043-1.401,0.043-2.14c0-0.169-0.062-0.405-0.231-0.405c-0.509,0,0.063,1.695-2.14,1.695h-2.288
			c-0.848,0-0.807,0-0.807-0.72V37.71z M300.344,43.262c0,4.387,3.115,7.374,7.459,7.374c4.767,0,6.271-1.59,6.295-1.673
			l0.486-2.119c0.024-0.106-0.085-0.235-0.19-0.235c-0.126,0-0.251,0.129-0.294,0.279c-0.319,0.975-2.395,3.094-5.724,3.094
			c-4.068,0-6.187-3.688-6.187-7.375c0-3.94,1.992-6.695,6.122-6.695c2.734,0,4.239,1.377,5.552,3.644
			c0.086,0.149,0.234,0.697,0.49,0.697c0.358,0,0.169-0.697,0.126-1.822c-0.064-1.376-0.064-1.715-0.296-1.715
			c-0.213,0-0.339,0.213-0.508,0.213c-0.616,0-1.718-1.634-5.701-1.634C303.503,35.294,300.344,38.876,300.344,43.262z
			 M284.92,47.479c0,2.966-1.865,2.034-1.865,2.774c0,0.107,0.024,0.232,0.275,0.232c0.15,0,1.251-0.085,1.992-0.085
			c1.04,0,1.632,0.085,2.141,0.085c0.211,0,0.232-0.168,0.232-0.275c0-0.57-1.863,0.169-1.863-1.736V39.81
			c0-0.425,0.064-0.489,0.146-0.489c0.15,0,0.405,0.36,0.448,0.403l9.11,10.256c0.444,0.486,0.656,0.593,0.807,0.593
			c0.168,0,0.189-0.294,0.189-0.911V37.394c0-1.546,1.251-1.165,1.251-1.718c0-0.128-0.086-0.188-0.213-0.188
			c-0.508,0-1.421,0.086-2.142,0.086c-0.678,0-1.29-0.086-1.928-0.086c-0.126,0-0.233,0.061-0.233,0.211
			c0,0.697,2.354-0.105,2.354,2.67v8.858c0,0.167-0.023,0.231-0.064,0.231s-0.129-0.086-0.254-0.231l-10.106-11.252
			c-0.127-0.147-0.318-0.487-0.553-0.487c-0.319,0-0.656,0.086-0.975,0.086c-0.338,0-0.656-0.086-0.997-0.086
			c-0.103,0-0.315,0.086-0.315,0.211c0,0.785,2.564-0.444,2.564,3.961v7.82H284.92z M273.729,37.71c0-1.417-0.04-1.334,1.994-1.334
			c0.848,0,3.051-0.127,3.603,0.593c0.339,0.489,0,1.504,0.509,1.504c0.126,0,0.425-0.168,0.425-2.52
			c0-0.255-0.043-0.466-0.214-0.466c-0.655,0-2.604,0.086-3.028,0.086c-0.891,0-1.994-0.086-5.998-0.086
			c-0.614,0-0.74,0.086-0.74,0.253c0,0.254,0.466,0.297,0.633,0.339c1.146,0.17,1.146,1.189,1.146,2.14v9.662
			c0,0.996-0.041,1.59-0.594,1.844c-0.677,0.339-0.889,0.296-0.932,0.554c0,0.167,0.126,0.212,0.316,0.212
			c0.849,0,1.736-0.064,2.584-0.086c1.61-0.042,3.222,0.086,4.831,0.086c0.932,0,1.398,0.039,2.077-0.721
			c0.507-0.552,1.058-1.294,1.058-2.059c0-0.041-0.021-0.253-0.167-0.253c-0.276,0-0.996,2.185-5.893,2.185
			c-1.779,0-1.609-0.509-1.609-1.76v-3.901c0-0.315-0.061-0.677,0.381-0.677h3.136c1.781,0,1.061,1.863,1.72,1.863
			c0.147,0,0.229-0.084,0.229-0.274c0-0.571-0.039-1.123-0.039-1.672c0-0.681,0.039-1.401,0.039-2.14
			c0-0.169-0.061-0.405-0.229-0.405c-0.509,0,0.062,1.695-2.143,1.695h-2.287c-0.848,0-0.807,0-0.807-0.72V37.71L273.729,37.71z
			 M264.557,48.157c0,2.097-1.652,1.4-1.652,2.013c0,0.211,0.063,0.316,0.443,0.316c0.296,0,0.743-0.085,2.035-0.085
			c0.91,0,1.821,0.085,2.31,0.085c0.36,0,0.427-0.063,0.427-0.211c0-0.635-1.889-0.15-1.889-1.591V37.307
			c0-1.59,1.526-1.103,1.526-1.608c0-0.17-0.062-0.214-0.401-0.214c-0.657,0-1.313,0.085-1.971,0.085
			c-0.783,0-1.546-0.085-2.33-0.085c-0.17,0-0.213,0.043-0.213,0.232c0,0.466,1.695,0.043,1.718,1.59v10.851H264.557z
			 M246.332,43.262c0,4.387,3.117,7.374,7.46,7.374c4.769,0,6.271-1.59,6.295-1.673l0.487-2.119
			c0.021-0.106-0.086-0.235-0.189-0.235c-0.126,0-0.255,0.129-0.296,0.279c-0.319,0.975-2.396,3.094-5.722,3.094
			c-4.068,0-6.187-3.688-6.187-7.375c0-3.94,1.992-6.695,6.122-6.695c2.734,0,4.236,1.377,5.552,3.644
			c0.085,0.149,0.232,0.697,0.487,0.697c0.358,0,0.168-0.697,0.129-1.822c-0.064-1.376-0.064-1.715-0.298-1.715
			c-0.212,0-0.339,0.213-0.509,0.213c-0.614,0-1.717-1.634-5.699-1.634C249.492,35.294,246.332,38.876,246.332,43.262z
			 M234.448,49.471c0.084,0.382,2.011,1.165,3.58,1.165c4.809,0,6.06-2.67,6.06-4.45c0-5.849-8.604-3.518-8.604-7.501
			c0-1.95,1.781-2.755,3.453-2.755c1.865,0,3.414,0.934,4.047,2.755c0.064,0.191,0.213,0.636,0.447,0.636
			c0.212,0,0.255-0.148,0.23-0.317l-0.316-2.882c-0.021-0.232-0.127-0.294-0.254-0.294c-0.212,0-0.255,0.23-0.444,0.23
			c-0.296,0-0.997-0.764-3.563-0.764c-2.435,0-4.703,1.294-4.703,3.985c0,5.53,8.603,3.241,8.603,7.329
			c0,2.229-1.972,3.352-3.982,3.352c-2.925,0-4.196-2.204-4.451-3.18c-0.104-0.444-0.104-0.698-0.401-0.698
			c-0.213,0-0.319,0.232-0.233,0.655L234.448,49.471z M212.093,48.157c0,2.097-1.654,1.4-1.654,2.013
			c0,0.211,0.064,0.316,0.234,0.316c0.085,0,0.316-0.085,1.821-0.085c1.122,0,2.67,0.085,2.946,0.085
			c0.189,0,0.337-0.063,0.337-0.168c0-0.657-2.01-0.191-2.01-1.633v-5.274c0-0.232,0-0.359,0.253-0.359h7.817
			c0.255,0,0.169,0.191,0.169,0.53v5.085c0,1.336-1.482,1.038-1.482,1.547c0,0.337,0.317,0.276,0.507,0.276
			c0.405,0,0.998-0.086,2.354-0.086c0.764,0,1.42,0.086,1.993,0.086c0.146,0,0.229-0.192,0.229-0.255c0-0.53-1.928-0.15-1.928-1.695
			V37.31c0-1.462,1.419-1.103,1.419-1.482c0-0.126-0.043-0.34-0.593-0.34c-0.425,0-0.744,0.086-1.528,0.086
			c-0.401,0-1.502-0.086-2.201-0.086c-0.317,0-0.358,0.105-0.358,0.232c0,0.487,1.588,0.128,1.588,1.59v4.346
			c0,0.084,0.043,0.614-0.169,0.614h-7.756c-0.314,0-0.314-0.084-0.314-0.382v-4.577c0-1.589,1.525-1.186,1.525-1.609
			c0-0.085-0.043-0.211-0.403-0.211c-0.656,0-1.314,0.086-1.971,0.086c-0.785,0-1.547-0.086-2.33-0.086
			c-0.167,0-0.34,0.041-0.34,0.231c0,0.466,1.823,0.041,1.844,1.589V48.157z M200.904,48.645c0,1.271-1.672,1.058-1.672,1.566
			c0,0.213,0.062,0.275,0.255,0.275c0.125,0,0.527-0.085,2.902-0.085c0.615,0,1.208,0.085,1.717,0.085
			c0.212,0,0.19-0.189,0.19-0.252c0-0.658-1.717,0.041-1.717-1.738V37.689c0-1.123-0.105-1.039,0.85-1.039h3.028
			c2.161,0,1.018,1.611,1.803,1.611c0.272,0,0.251-0.255,0.229-0.467l-0.104-1.694c-0.023-0.489-0.126-0.616-0.616-0.616
			c-0.427,0-2.375,0.085-6.208,0.085c-2.734,0-4.365-0.085-6.018-0.085c-0.381,0-0.359,0.571-0.381,0.826l-0.232,2.055
			c0,0.106,0.084,0.255,0.211,0.255c0.276,0,0.295-0.276,0.359-0.487c0.383-1.165,0.426-1.484,1.738-1.484h3.453
			c0.296,0.025,0.211,0.828,0.211,0.976V48.645z M188.271,37.584c0-1.844,1.547-1.315,1.547-1.8c0-0.254-0.126-0.297-0.401-0.297
			c-0.319,0-0.826,0.086-2.036,0.086c-1.036,0-1.695-0.086-2.14-0.086c-0.275,0-0.423,0.043-0.423,0.275
			c0,0.425,1.781,0.277,1.781,1.38v10.741c0,0.997-0.043,1.59-0.595,1.845c-0.678,0.338-0.89,0.295-0.933,0.553
			c0,0.167,0.126,0.212,0.316,0.212c0.849,0,1.738-0.064,2.584-0.086c1.611-0.041,3.222,0.086,4.831,0.086
			c0.936,0,1.401,0.04,2.077-0.721c0.509-0.552,1.06-1.294,1.06-2.057c0-0.043-0.021-0.255-0.169-0.255
			c-0.276,0-0.996,2.185-5.889,2.185c-1.781,0-1.612-0.509-1.612-1.76L188.271,37.584L188.271,37.584z M178.822,47.161
			c0.214,0.573,0.659,1.548,0.659,2.014c0,0.805-1.272,0.592-1.272,1.101c0,0.211,0.34,0.211,0.466,0.211
			c0.571,0,1.144-0.085,1.717-0.085c0.87,0,1.736,0.085,2.605,0.085c0.15,0,0.296,0,0.296-0.189c0-0.53-1.228-0.063-1.865-1.038
			c-0.487-0.743-0.742-1.632-1.06-2.415l-4.406-10.914c-0.064-0.167-0.215-0.783-0.447-0.783c-0.273,0-0.338,0.341-1.589,3.009
			l-5.065,10.808c-0.553,1.208-1.546,0.847-1.546,1.291c0,0.127,0.063,0.232,0.19,0.232c0.55,0,1.124-0.085,1.695-0.085
			c0.595,0,1.187,0.085,1.781,0.085c0.275,0,0.573,0.064,0.573-0.316c0-0.554-1.505,0.084-1.505-1.399
			c0-0.276,0.085-0.595,0.149-0.742l1.355-2.966c0.211-0.446,0.592-0.446,0.996-0.446h4.66c0.595,0,0.72,0.319,0.933,0.805
			L178.822,47.161z M174.818,38.155c0.127-0.254,0.231-0.254,0.34,0l2.076,5.106c0.105,0.278,0.127,0.426-0.339,0.426h-4.197
			c-0.277,0-0.425-0.086-0.277-0.382L174.818,38.155z M158.353,37.71c0-1.417-0.042-1.334,1.992-1.334
			c0.848,0,3.051-0.127,3.601,0.593c0.339,0.489,0,1.504,0.509,1.504c0.127,0,0.425-0.168,0.425-2.52
			c0-0.255-0.042-0.466-0.213-0.466c-0.656,0-2.605,0.086-3.029,0.086c-0.89,0-1.991-0.086-5.997-0.086
			c-0.614,0-0.741,0.086-0.741,0.253c0,0.254,0.467,0.297,0.636,0.339c1.144,0.17,1.144,1.189,1.144,2.14v9.662
			c0,0.996-0.042,1.59-0.593,1.844c-0.678,0.339-0.891,0.296-0.933,0.554c0,0.167,0.127,0.212,0.317,0.212
			c0.848,0,1.737-0.064,2.585-0.086c1.61-0.042,3.22,0.086,4.831,0.086c0.934,0,1.399,0.039,2.077-0.721
			c0.509-0.552,1.061-1.294,1.061-2.059c0-0.041-0.021-0.253-0.17-0.253c-0.274,0-0.995,2.185-5.89,2.185
			c-1.779,0-1.61-0.509-1.61-1.76v-3.901c0-0.315-0.063-0.677,0.382-0.677h3.136c1.779,0,1.059,1.863,1.717,1.863
			c0.148,0,0.231-0.084,0.231-0.274c0-0.571-0.042-1.123-0.042-1.672c0-0.681,0.042-1.401,0.042-2.14
			c0-0.169-0.063-0.405-0.231-0.405c-0.507,0,0.063,1.695-2.141,1.695h-2.289c-0.848,0-0.806,0-0.806-0.72V37.71H158.353z
			 M139.538,48.157c0,2.097-1.653,1.4-1.653,2.013c0,0.211,0.064,0.316,0.234,0.316c0.085,0,0.317-0.085,1.822-0.085
			c1.122,0,2.67,0.085,2.945,0.085c0.191,0,0.338-0.063,0.338-0.168c0-0.657-2.012-0.191-2.012-1.633v-5.274
			c0-0.232,0-0.359,0.254-0.359h7.818c0.253,0,0.169,0.191,0.169,0.53v5.085c0,1.336-1.484,1.038-1.484,1.547
			c0,0.337,0.319,0.276,0.509,0.276c0.403,0,0.996-0.086,2.353-0.086c0.762,0,1.418,0.086,1.992,0.086
			c0.147,0,0.232-0.192,0.232-0.255c0-0.53-1.927-0.15-1.927-1.695V37.31c0-1.462,1.418-1.103,1.418-1.482
			c0-0.126-0.042-0.34-0.593-0.34c-0.424,0-0.74,0.086-1.525,0.086c-0.402,0-1.504-0.086-2.204-0.086
			c-0.316,0-0.359,0.105-0.359,0.232c0,0.487,1.589,0.128,1.589,1.59v4.346c0,0.084,0.042,0.614-0.169,0.614h-7.756
			c-0.317,0-0.317-0.084-0.317-0.382v-4.577c0-1.589,1.525-1.186,1.525-1.609c0-0.085-0.042-0.211-0.403-0.211
			c-0.656,0-1.313,0.086-1.97,0.086c-0.785,0-1.548-0.086-2.331-0.086c-0.17,0-0.339,0.041-0.339,0.231
			c0,0.466,1.822,0.041,1.842,1.589L139.538,48.157L139.538,48.157z"/>
	</g>
</g>
<g id="Layer_2" display="none">
</g>
</svg>
